<svg width="60" height="54" viewBox="0 0 60 54" fill="none" xmlns="http://www.w3.org/2000/svg">
<path d="M27 54V48H51V26.7C51 20.85 48.9625 15.8875 44.8875 11.8125C40.8125 7.7375 35.85 5.7 30 5.7C24.15 5.7 19.1875 7.7375 15.1125 11.8125C11.0375 15.8875 9 20.85 9 26.7V45H6C4.35 45 2.9375 44.4125 1.7625 43.2375C0.5875 42.0625 0 40.65 0 39V33C0 31.95 0.2625 30.9625 0.7875 30.0375C1.3125 29.1125 2.05 28.375 3 27.825L3.225 23.85C3.625 20.45 4.6125 17.3 6.1875 14.4C7.7625 11.5 9.7375 8.975 12.1125 6.825C14.4875 4.675 17.2125 3 20.2875 1.8C23.3625 0.6 26.6 0 30 0C33.4 0 36.625 0.6 39.675 1.8C42.725 3 45.45 4.6625 47.85 6.7875C50.25 8.9125 52.225 11.425 53.775 14.325C55.325 17.225 56.325 20.375 56.775 23.775L57 27.675C57.95 28.125 58.6875 28.8 59.2125 29.7C59.7375 30.6 60 31.55 60 32.55V39.45C60 40.45 59.7375 41.4 59.2125 42.3C58.6875 43.2 57.95 43.875 57 44.325V48C57 49.65 56.4125 51.0625 55.2375 52.2375C54.0625 53.4125 52.65 54 51 54H27ZM21 33C20.15 33 19.4375 32.7125 18.8625 32.1375C18.2875 31.5625 18 30.85 18 30C18 29.15 18.2875 28.4375 18.8625 27.8625C19.4375 27.2875 20.15 27 21 27C21.85 27 22.5625 27.2875 23.1375 27.8625C23.7125 28.4375 24 29.15 24 30C24 30.85 23.7125 31.5625 23.1375 32.1375C22.5625 32.7125 21.85 33 21 33ZM39 33C38.15 33 37.4375 32.7125 36.8625 32.1375C36.2875 31.5625 36 30.85 36 30C36 29.15 36.2875 28.4375 36.8625 27.8625C37.4375 27.2875 38.15 27 39 27C39.85 27 40.5625 27.2875 41.1375 27.8625C41.7125 28.4375 42 29.15 42 30C42 30.85 41.7125 31.5625 41.1375 32.1375C40.5625 32.7125 39.85 33 39 33ZM12.075 28.35C11.725 23.05 13.325 18.5 16.875 14.7C20.425 10.9 24.85 9 30.15 9C34.6 9 38.5125 10.4125 41.8875 13.2375C45.2625 16.0625 47.3 19.675 48 24.075C43.45 24.025 39.2625 22.8 35.4375 20.4C31.6125 18 28.675 14.75 26.625 10.65C25.825 14.65 24.1375 18.2125 21.5625 21.3375C18.9875 24.4625 15.825 26.8 12.075 28.35Z" fill="#0045D0"/>
</svg>
