<svg width="67" height="67" viewBox="0 0 67 67" fill="none" xmlns="http://www.w3.org/2000/svg">
<path d="M46.2021 34.3333L36.2917 24.4229L40.2698 20.5146L46.2021 26.4469L58.0667 14.5823L61.975 18.5604L46.2021 34.3333ZM22.3333 34.3333C19.2625 34.3333 16.6337 33.2399 14.4469 31.0531C12.2601 28.8663 11.1667 26.2375 11.1667 23.1667C11.1667 20.0958 12.2601 17.467 14.4469 15.2802C16.6337 13.0934 19.2625 12 22.3333 12C25.4042 12 28.033 13.0934 30.2198 15.2802C32.4066 17.467 33.5 20.0958 33.5 23.1667C33.5 26.2375 32.4066 28.8663 30.2198 31.0531C28.033 33.2399 25.4042 34.3333 22.3333 34.3333ZM0 56.6667V48.85C0 47.2681 0.407118 45.8141 1.22135 44.488C2.03559 43.162 3.11736 42.15 4.46667 41.4521C7.35139 40.0097 10.2826 38.9279 13.2604 38.2068C16.2382 37.4856 19.2625 37.125 22.3333 37.125C25.4042 37.125 28.4285 37.4856 31.4063 38.2068C34.384 38.9279 37.3153 40.0097 40.2 41.4521C41.5493 42.15 42.6311 43.162 43.4453 44.488C44.2595 45.8141 44.6667 47.2681 44.6667 48.85V56.6667H0ZM5.58333 51.0833H39.0833V48.85C39.0833 48.3382 38.9554 47.8729 38.6995 47.4542C38.4436 47.0354 38.1063 46.7097 37.6875 46.4771C35.175 45.2208 32.6392 44.2786 30.0802 43.6505C27.5212 43.0224 24.9389 42.7083 22.3333 42.7083C19.7278 42.7083 17.1455 43.0224 14.5865 43.6505C12.0274 44.2786 9.49167 45.2208 6.97917 46.4771C6.56042 46.7097 6.22309 47.0354 5.96719 47.4542C5.71128 47.8729 5.58333 48.3382 5.58333 48.85V51.0833ZM22.3333 28.75C23.8688 28.75 25.1832 28.2033 26.2766 27.1099C27.37 26.0165 27.9167 24.7021 27.9167 23.1667C27.9167 21.6312 27.37 20.3168 26.2766 19.2234C25.1832 18.13 23.8688 17.5833 22.3333 17.5833C20.7979 17.5833 19.4835 18.13 18.3901 19.2234C17.2967 20.3168 16.75 21.6312 16.75 23.1667C16.75 24.7021 17.2967 26.0165 18.3901 27.1099C19.4835 28.2033 20.7979 28.75 22.3333 28.75Z" fill="#0045D0"/>
</svg>
