<svg width="72" height="72" viewBox="0 0 72 72" fill="none" xmlns="http://www.w3.org/2000/svg">
<path d="M26.85 35.4L19.575 28.2L22.725 25.05L26.775 29.1L34.275 21.6L37.425 24.75L26.85 35.4ZM58.8 63L39.9 44.1C38.4 45.3 36.675 46.25 34.725 46.95C32.775 47.65 30.7 48 28.5 48C23.05 48 18.4375 46.1125 14.6625 42.3375C10.8875 38.5625 9 33.95 9 28.5C9 23.05 10.8875 18.4375 14.6625 14.6625C18.4375 10.8875 23.05 9 28.5 9C33.95 9 38.5625 10.8875 42.3375 14.6625C46.1125 18.4375 48 23.05 48 28.5C48 30.7 47.65 32.775 46.95 34.725C46.25 36.675 45.3 38.4 44.1 39.9L63 58.8L58.8 63ZM28.5 42C32.25 42 35.4375 40.6875 38.0625 38.0625C40.6875 35.4375 42 32.25 42 28.5C42 24.75 40.6875 21.5625 38.0625 18.9375C35.4375 16.3125 32.25 15 28.5 15C24.75 15 21.5625 16.3125 18.9375 18.9375C16.3125 21.5625 15 24.75 15 28.5C15 32.25 16.3125 35.4375 18.9375 38.0625C21.5625 40.6875 24.75 42 28.5 42Z" fill="#0045D0"/>
</svg>
