<svg width="859" height="1837" viewBox="0 0 859 1837" fill="none" xmlns="http://www.w3.org/2000/svg">
<g clip-path="url(#clip0_63_25)">
<mask id="mask0_63_25" style="mask-type:alpha" maskUnits="userSpaceOnUse" x="0" y="1347" width="653" height="652">
<path d="M326 1347C506.045 1347 652 1492.95 652 1673C652 1853.04 506.045 1999 326 1999C145.955 1999 0.00011569 1853.04 0.00010782 1673C9.99504e-05 1492.96 145.955 1347 326 1347Z" fill="#002366"/>
</mask>
<g mask="url(#mask0_63_25)">
<path d="M-170.792 1345.34L-170.792 1844L873.908 1844L873.908 1345.34L-170.792 1345.34Z" fill="#002774"/>
</g>
<path d="M801 142C801 75.7258 747.274 22 681 22C614.726 22 561 75.7258 561 142C561 208.274 614.726 262 681 262C747.274 262 801 208.274 801 142Z" fill="#002774"/>
<path d="M371 702.5C371 693.94 364.06 687 355.5 687C346.94 687 340 693.94 340 702.5C340 711.06 346.94 718 355.5 718C364.06 718 371 711.06 371 702.5Z" fill="#002774"/>
<path d="M681 974.5C681 953.789 664.211 937 643.5 937C622.789 937 606 953.789 606 974.5C606 995.211 622.789 1012 643.5 1012C664.211 1012 681 995.211 681 974.5Z" fill="#002774"/>
<path d="M70.0001 1295C70.0001 1290.58 66.4184 1287 62.0001 1287C57.5818 1287 54.0001 1290.58 54.0001 1295C54.0001 1299.42 57.5818 1303 62.0001 1303C66.4184 1303 70.0001 1299.42 70.0001 1295Z" fill="#002774"/>
</g>
<defs>
<clipPath id="clip0_63_25">
<rect width="1837" height="859" fill="white" transform="translate(0.00012207 1837) rotate(-90)"/>
</clipPath>
</defs>
</svg>
