<svg width="220" height="102" viewBox="0 0 220 102" fill="none" xmlns="http://www.w3.org/2000/svg">
<path d="M117.192 47.3824C116.04 47.3824 114.968 47.1584 113.976 46.7104C113 46.2464 112.136 45.6384 111.384 44.8864C110.632 44.1184 110.04 43.2224 109.608 42.1984C109.176 41.1584 108.96 40.0064 108.96 38.7424C108.96 37.5104 109.176 36.3744 109.608 35.3344C110.04 34.2784 110.632 33.3584 111.384 32.5744C112.12 31.8064 112.984 31.1984 113.976 30.7504C114.968 30.3024 116.04 30.0784 117.192 30.0784C118.392 30.0784 119.536 30.3424 120.624 30.8704C121.712 31.3984 122.712 32.2064 123.624 33.2944L121.584 34.9984C120.912 34.2144 120.208 33.6384 119.472 33.2704C118.752 32.9024 117.992 32.7184 117.192 32.7184C116.424 32.7184 115.704 32.8784 115.032 33.1984C114.376 33.5024 113.784 33.9184 113.256 34.4464C112.744 34.9744 112.344 35.6064 112.056 36.3424C111.768 37.0624 111.624 37.8624 111.624 38.7424C111.624 39.6224 111.768 40.4144 112.056 41.1184C112.344 41.8224 112.744 42.4464 113.256 42.9904C113.768 43.5504 114.36 43.9824 115.032 44.2864C115.704 44.5904 116.424 44.7424 117.192 44.7424C117.992 44.7424 118.752 44.5584 119.472 44.1904C120.208 43.8224 120.912 43.2464 121.584 42.4624L123.624 44.1424C122.712 45.2464 121.712 46.0624 120.624 46.5904C119.536 47.1184 118.392 47.3824 117.192 47.3824ZM128.338 47.1184H125.794V30.3184H128.338V47.1184ZM136.307 47.4304C135.155 47.4304 134.139 47.1824 133.259 46.6864C132.395 46.1744 131.715 45.4704 131.219 44.5744C130.739 43.6624 130.499 42.6064 130.499 41.4064C130.499 39.9984 130.747 38.8224 131.243 37.8784C131.739 36.9184 132.419 36.1984 133.283 35.7184C134.163 35.2384 135.171 34.9984 136.307 34.9984C137.443 34.9984 138.443 35.2384 139.307 35.7184C140.187 36.1984 140.875 36.9184 141.371 37.8784C141.867 38.8224 142.115 39.9984 142.115 41.4064C142.115 42.6064 141.867 43.6624 141.371 44.5744C140.875 45.4704 140.187 46.1744 139.307 46.6864C138.443 47.1824 137.443 47.4304 136.307 47.4304ZM136.307 44.9824C137.027 44.9824 137.635 44.8144 138.131 44.4784C138.627 44.1424 139.003 43.7024 139.259 43.1584C139.531 42.6144 139.667 42.0304 139.667 41.4064C139.667 40.2864 139.379 39.3504 138.803 38.5984C138.227 37.8304 137.395 37.4464 136.307 37.4464C135.235 37.4464 134.403 37.8224 133.811 38.5744C133.235 39.3264 132.947 40.2704 132.947 41.4064C132.947 42.0464 133.075 42.6384 133.331 43.1824C133.603 43.7264 133.987 44.1664 134.483 44.5024C134.979 44.8224 135.587 44.9824 136.307 44.9824ZM154.281 47.1184H151.713V46.0864C151.489 46.5024 151.097 46.8144 150.537 47.0224C149.977 47.2304 149.353 47.3344 148.665 47.3344C147.993 47.3504 147.329 47.2624 146.673 47.0704C146.033 46.8784 145.497 46.5984 145.065 46.2304C144.073 45.3344 143.577 44.0224 143.577 42.2944V35.1184H146.145V42.2944C146.145 43.2064 146.409 43.8704 146.937 44.2864C147.481 44.7024 148.161 44.9104 148.977 44.9104C149.393 44.9104 149.809 44.8224 150.225 44.6464C150.657 44.4544 151.009 44.1664 151.281 43.7824C151.569 43.3984 151.713 42.9024 151.713 42.2944V35.1184H154.281V47.1184ZM159.948 46.9744C159.164 46.7184 158.508 46.2944 157.98 45.7024C157.468 45.1104 157.084 44.4064 156.828 43.5904C156.572 42.7584 156.444 41.8704 156.444 40.9264C156.444 39.8064 156.644 38.7984 157.044 37.9024C157.46 37.0064 158.06 36.2944 158.844 35.7664C159.628 35.2224 160.596 34.9504 161.748 34.9504C162.132 34.9504 162.572 34.9904 163.068 35.0704C163.58 35.1504 164.028 35.3104 164.412 35.5504V30.3184H166.98V47.1184H164.412V46.1104C164.14 46.4144 163.74 46.6624 163.212 46.8544C162.7 47.0304 162.148 47.1344 161.556 47.1664C160.98 47.1984 160.444 47.1344 159.948 46.9744ZM164.412 43.9744V37.9744C163.484 37.5904 162.604 37.4544 161.772 37.5664C160.956 37.6784 160.292 38.0224 159.78 38.5984C159.268 39.1584 159.012 39.9344 159.012 40.9264C159.012 42.0784 159.268 42.9824 159.78 43.6384C160.308 44.2944 160.98 44.6624 161.796 44.7424C162.628 44.8064 163.5 44.5504 164.412 43.9744ZM119.064 72.4864C118.248 73.2544 117.376 73.7824 116.448 74.0704C115.536 74.3424 114.632 74.3984 113.736 74.2384C112.856 74.0944 112.056 73.7584 111.336 73.2304C110.616 72.6864 110.04 71.9824 109.608 71.1184C109.176 70.2544 108.96 69.2464 108.96 68.0944C108.96 66.9264 109.168 65.9104 109.584 65.0464C110.016 64.1824 110.592 63.5024 111.312 63.0064C112.032 62.4944 112.832 62.1744 113.712 62.0464C114.608 61.9184 115.52 62.0064 116.448 62.3104C117.392 62.5984 118.28 63.1184 119.112 63.8704L117.432 65.6944C116.872 65.1024 116.256 64.7424 115.584 64.6144C114.912 64.4704 114.264 64.5184 113.64 64.7584C113.032 64.9984 112.528 65.4064 112.128 65.9824C111.728 66.5584 111.528 67.2624 111.528 68.0944C111.528 68.9904 111.728 69.7344 112.128 70.3264C112.528 70.9184 113.032 71.3424 113.64 71.5984C114.264 71.8384 114.92 71.8864 115.608 71.7424C116.312 71.5824 116.952 71.2064 117.528 70.6144L119.064 72.4864ZM126.37 74.4304C125.218 74.4304 124.202 74.1824 123.322 73.6864C122.458 73.1744 121.778 72.4704 121.282 71.5744C120.802 70.6624 120.562 69.6064 120.562 68.4064C120.562 66.9984 120.81 65.8224 121.306 64.8784C121.802 63.9184 122.482 63.1984 123.346 62.7184C124.226 62.2384 125.234 61.9984 126.37 61.9984C127.506 61.9984 128.506 62.2384 129.37 62.7184C130.25 63.1984 130.938 63.9184 131.434 64.8784C131.93 65.8224 132.178 66.9984 132.178 68.4064C132.178 69.6064 131.93 70.6624 131.434 71.5744C130.938 72.4704 130.25 73.1744 129.37 73.6864C128.506 74.1824 127.506 74.4304 126.37 74.4304ZM126.37 71.9824C127.09 71.9824 127.698 71.8144 128.194 71.4784C128.69 71.1424 129.066 70.7024 129.322 70.1584C129.594 69.6144 129.73 69.0304 129.73 68.4064C129.73 67.2864 129.442 66.3504 128.866 65.5984C128.29 64.8304 127.458 64.4464 126.37 64.4464C125.298 64.4464 124.466 64.8224 123.874 65.5744C123.298 66.3264 123.01 67.2704 123.01 68.4064C123.01 69.0464 123.138 69.6384 123.394 70.1824C123.666 70.7264 124.05 71.1664 124.546 71.5024C125.042 71.8224 125.65 71.9824 126.37 71.9824ZM152.684 74.1184H150.14V67.1584C150.14 66.2304 149.908 65.5664 149.444 65.1664C148.996 64.7504 148.388 64.5424 147.62 64.5424C146.836 64.5424 146.172 64.7504 145.628 65.1664C145.084 65.5664 144.812 66.2304 144.812 67.1584V74.1184H142.34V67.1584C142.34 66.2144 142.084 65.5504 141.572 65.1664C141.076 64.7664 140.468 64.5664 139.748 64.5664C139.284 64.5664 138.836 64.6544 138.404 64.8304C137.972 64.9904 137.612 65.2624 137.324 65.6464C137.036 66.0144 136.892 66.5184 136.892 67.1584V74.1184H134.348V62.1184H136.892V63.1264C137.276 62.7264 137.732 62.4384 138.26 62.2624C138.788 62.0864 139.316 61.9984 139.844 61.9984C140.596 61.9984 141.316 62.1424 142.004 62.4304C142.708 62.7024 143.284 63.1264 143.732 63.7024C144.148 63.1264 144.732 62.7024 145.484 62.4304C146.252 62.1424 147.012 61.9984 147.764 61.9984C148.644 61.9984 149.452 62.2144 150.188 62.6464C150.94 63.0624 151.54 63.6544 151.988 64.4224C152.452 65.1904 152.684 66.1024 152.684 67.1584V74.1184ZM157.377 78.9184H154.833V62.1184H157.377V62.7904C158.369 62.2304 159.353 61.9744 160.329 62.0224C161.321 62.0704 162.225 62.3664 163.041 62.9104C163.857 63.4384 164.513 64.1664 165.009 65.0944C165.505 66.0224 165.753 67.0944 165.753 68.3104C165.753 69.4304 165.513 70.4384 165.033 71.3344C164.553 72.2304 163.897 72.9424 163.065 73.4704C162.233 73.9984 161.297 74.2704 160.257 74.2864C159.873 74.2864 159.393 74.2384 158.817 74.1424C158.241 74.0624 157.761 73.8944 157.377 73.6384V78.9184ZM157.377 71.1904C158.369 71.6864 159.305 71.8864 160.185 71.7904C161.081 71.6944 161.801 71.3504 162.345 70.7584C162.889 70.1504 163.161 69.3344 163.161 68.3104C163.161 67.4464 162.993 66.7264 162.657 66.1504C162.337 65.5584 161.897 65.1264 161.337 64.8544C160.777 64.5664 160.153 64.4544 159.465 64.5184C158.793 64.5824 158.097 64.8304 157.377 65.2624V71.1904ZM178.141 74.1184H175.573V73.0864C175.349 73.5024 174.957 73.8144 174.397 74.0224C173.837 74.2304 173.213 74.3344 172.525 74.3344C171.853 74.3504 171.189 74.2624 170.533 74.0704C169.893 73.8784 169.357 73.5984 168.925 73.2304C167.933 72.3344 167.437 71.0224 167.437 69.2944V62.1184H170.005V69.2944C170.005 70.2064 170.269 70.8704 170.797 71.2864C171.341 71.7024 172.021 71.9104 172.837 71.9104C173.253 71.9104 173.669 71.8224 174.085 71.6464C174.517 71.4544 174.869 71.1664 175.141 70.7824C175.429 70.3984 175.573 69.9024 175.573 69.2944V62.1184H178.141V74.1184ZM182.176 68.7664V64.4944H180.304V62.1184H182.176V57.3184H184.696V62.1184H186.64V64.4944H184.696V68.7664C184.696 69.4864 184.736 70.0464 184.816 70.4464C184.912 70.8464 185.04 71.1264 185.2 71.2864C185.376 71.4464 185.576 71.5424 185.8 71.5744C186.04 71.6064 186.296 71.6304 186.568 71.6464H187.048V74.1664H186.64C185.792 74.1664 185.08 74.1024 184.504 73.9744C183.944 73.8464 183.488 73.5984 183.136 73.2304C182.8 72.8464 182.552 72.3024 182.392 71.5984C182.248 70.8784 182.176 69.9344 182.176 68.7664ZM190.87 60.6544C190.438 60.6544 190.062 60.5024 189.742 60.1984C189.438 59.8784 189.286 59.4944 189.286 59.0464C189.286 58.6144 189.438 58.2464 189.742 57.9424C190.062 57.6384 190.438 57.4864 190.87 57.4864C191.318 57.4864 191.694 57.6384 191.998 57.9424C192.302 58.2464 192.454 58.6144 192.454 59.0464C192.454 59.4944 192.302 59.8784 191.998 60.1984C191.694 60.5024 191.318 60.6544 190.87 60.6544ZM192.07 74.1184H189.694V62.1184H192.07V74.1184ZM205.568 74.1184H203.024V67.0624C203.024 66.3744 202.88 65.8464 202.592 65.4784C202.32 65.1104 201.976 64.8544 201.56 64.7104C201.16 64.5664 200.76 64.4944 200.36 64.4944C199.976 64.4944 199.552 64.5664 199.088 64.7104C198.624 64.8544 198.224 65.1184 197.888 65.5024C197.568 65.8704 197.408 66.3904 197.408 67.0624V74.1184H194.864V62.1184H197.408V63.1264C197.712 62.7104 198.16 62.4144 198.752 62.2384C199.36 62.0624 199.952 61.9744 200.528 61.9744C201.52 61.9744 202.392 62.1824 203.144 62.5984C203.912 63.0144 204.504 63.6064 204.92 64.3744C205.352 65.1264 205.568 66.0224 205.568 67.0624V74.1184ZM213.179 79.0144C212.651 79.0144 212.107 78.9264 211.547 78.7504C211.003 78.5904 210.491 78.3664 210.011 78.0784C209.547 77.8064 209.179 77.5024 208.907 77.1664L210.539 75.4384C211.003 75.8544 211.531 76.1584 212.123 76.3504C212.731 76.5424 213.299 76.5904 213.827 76.4944C214.355 76.3984 214.755 76.1184 215.027 75.6544C215.203 75.3664 215.323 75.0464 215.387 74.6944C215.451 74.3424 215.483 73.9424 215.483 73.4944C214.523 74.0384 213.571 74.2704 212.627 74.1904C211.683 74.1264 210.819 73.8304 210.035 73.3024C209.267 72.7584 208.651 72.0544 208.187 71.1904C207.739 70.3104 207.507 69.3344 207.491 68.2624C207.475 67.0144 207.683 65.9344 208.115 65.0224C208.547 64.1104 209.139 63.3984 209.891 62.8864C210.659 62.3744 211.523 62.0944 212.483 62.0464C213.459 61.9824 214.483 62.1904 215.555 62.6704V62.1184H218.099V73.5904C218.099 75.2384 217.675 76.5504 216.827 77.5264C215.995 78.5184 214.779 79.0144 213.179 79.0144ZM210.011 68.2624C210.011 68.9984 210.171 69.6224 210.491 70.1344C210.827 70.6304 211.259 71.0064 211.787 71.2624C212.331 71.5024 212.923 71.6144 213.563 71.5984C214.219 71.5824 214.883 71.4224 215.555 71.1184V65.1424C214.515 64.5984 213.571 64.3664 212.723 64.4464C211.891 64.5104 211.227 64.8704 210.731 65.5264C210.251 66.1664 210.011 67.0784 210.011 68.2624Z" fill="#4F5053"/>
<path d="M28.2913 87.598C21.5287 87.598 15.7697 85.3121 11.0143 80.7404C6.25891 76.1686 3.88123 70.611 3.88123 64.0676C3.88123 58.312 5.76519 53.2317 9.53311 48.8269C13.301 44.4219 18.1173 41.7674 23.982 40.8633C25.5537 33.783 29.152 28.0062 34.7769 23.5327C40.4016 19.0593 46.887 16.8225 54.2328 16.8225C62.6994 16.8225 69.8649 19.7838 75.7296 25.7064C81.5943 31.629 84.5984 38.7463 84.7418 47.0583V49.6668C90.1956 49.6778 94.7885 51.4855 98.5206 55.0899C102.253 58.6942 104.119 63.2083 104.119 68.6324C104.119 73.8211 102.19 78.2792 98.3312 82.0068C94.4729 85.7342 89.8583 87.598 84.4875 87.598H28.2913ZM28.2913 80.1932H84.4337C87.7236 80.1932 90.5495 79.0556 92.9114 76.7803C95.2732 74.5049 96.4541 71.7716 96.4541 68.5804C96.4541 65.3892 95.2732 62.6559 92.9114 60.3806C90.5495 58.1053 87.7236 56.9676 84.4337 56.9676H77.1041V47.5522C77.1041 41.0377 74.8467 35.5259 70.3318 31.0169C65.817 26.5079 60.3022 24.2533 53.7876 24.2533C47.2329 24.2533 41.6853 26.5401 37.1446 31.1135C32.6038 35.687 30.3334 41.2618 30.3334 47.838H27.9537C23.3706 47.838 19.4902 49.3907 16.3125 52.4959C13.1347 55.6012 11.5459 59.4394 11.5459 64.0106C11.5459 68.5094 13.1722 72.3312 16.425 75.4761C19.6777 78.6209 23.6332 80.1932 28.2913 80.1932Z" fill="#4F5053"/>
</svg>
