<svg width="258" height="102" viewBox="0 0 258 102" fill="none" xmlns="http://www.w3.org/2000/svg">
<path d="M117.391 60.9077C116.239 60.9077 115.167 60.6837 114.175 60.2357C113.199 59.7717 112.335 59.1637 111.583 58.4117C110.831 57.6437 110.239 56.7477 109.807 55.7237C109.375 54.6837 109.159 53.5317 109.159 52.2677C109.159 51.0357 109.375 49.8997 109.807 48.8597C110.239 47.8037 110.831 46.8837 111.583 46.0997C112.319 45.3317 113.183 44.7237 114.175 44.2757C115.167 43.8277 116.239 43.6037 117.391 43.6037C118.591 43.6037 119.735 43.8677 120.823 44.3957C121.911 44.9237 122.911 45.7317 123.823 46.8197L121.783 48.5237C121.111 47.7397 120.407 47.1637 119.671 46.7957C118.951 46.4277 118.191 46.2437 117.391 46.2437C116.623 46.2437 115.903 46.4037 115.231 46.7237C114.575 47.0277 113.983 47.4437 113.455 47.9717C112.943 48.4997 112.543 49.1317 112.255 49.8677C111.967 50.5877 111.823 51.3877 111.823 52.2677C111.823 53.1477 111.967 53.9397 112.255 54.6437C112.543 55.3477 112.943 55.9717 113.455 56.5157C113.967 57.0757 114.559 57.5077 115.231 57.8117C115.903 58.1157 116.623 58.2677 117.391 58.2677C118.191 58.2677 118.951 58.0837 119.671 57.7157C120.407 57.3477 121.111 56.7717 121.783 55.9877L123.823 57.6677C122.911 58.7717 121.911 59.5877 120.823 60.1157C119.735 60.6437 118.591 60.9077 117.391 60.9077ZM131.327 60.9557C130.175 60.9557 129.159 60.7077 128.279 60.2117C127.415 59.6997 126.735 58.9957 126.239 58.0997C125.759 57.1877 125.519 56.1317 125.519 54.9317C125.519 53.5237 125.767 52.3477 126.263 51.4037C126.759 50.4437 127.439 49.7237 128.303 49.2437C129.183 48.7637 130.191 48.5237 131.327 48.5237C132.463 48.5237 133.463 48.7637 134.327 49.2437C135.207 49.7237 135.895 50.4437 136.391 51.4037C136.887 52.3477 137.135 53.5237 137.135 54.9317C137.135 56.1317 136.887 57.1877 136.391 58.0997C135.895 58.9957 135.207 59.6997 134.327 60.2117C133.463 60.7077 132.463 60.9557 131.327 60.9557ZM131.327 58.5077C132.047 58.5077 132.655 58.3397 133.151 58.0037C133.647 57.6677 134.023 57.2277 134.279 56.6837C134.551 56.1397 134.687 55.5557 134.687 54.9317C134.687 53.8117 134.399 52.8757 133.823 52.1237C133.247 51.3557 132.415 50.9717 131.327 50.9717C130.255 50.9717 129.423 51.3477 128.831 52.0997C128.255 52.8517 127.967 53.7957 127.967 54.9317C127.967 55.5717 128.095 56.1637 128.351 56.7077C128.623 57.2517 129.007 57.6917 129.503 58.0277C129.999 58.3477 130.607 58.5077 131.327 58.5077ZM150.009 60.6437H147.465V53.5877C147.465 52.8997 147.321 52.3717 147.033 52.0037C146.761 51.6357 146.417 51.3797 146.001 51.2357C145.601 51.0917 145.201 51.0197 144.801 51.0197C144.417 51.0197 143.993 51.0917 143.529 51.2357C143.065 51.3797 142.665 51.6437 142.329 52.0277C142.009 52.3957 141.849 52.9157 141.849 53.5877V60.6437H139.305V48.6437H141.849V49.6517C142.153 49.2357 142.601 48.9397 143.193 48.7637C143.801 48.5877 144.393 48.4997 144.969 48.4997C145.961 48.4997 146.833 48.7077 147.585 49.1237C148.353 49.5397 148.945 50.1317 149.361 50.8997C149.793 51.6517 150.009 52.5477 150.009 53.5877V60.6437ZM153.805 55.2917V51.0197H151.933V48.6437H153.805V43.8437H156.325V48.6437H158.269V51.0197H156.325V55.2917C156.325 56.0117 156.365 56.5717 156.445 56.9717C156.541 57.3717 156.669 57.6517 156.829 57.8117C157.005 57.9717 157.205 58.0677 157.429 58.0997C157.669 58.1317 157.925 58.1557 158.197 58.1717H158.677V60.6917H158.269C157.421 60.6917 156.709 60.6277 156.133 60.4997C155.573 60.3717 155.117 60.1237 154.765 59.7557C154.429 59.3717 154.181 58.8277 154.021 58.1237C153.877 57.4037 153.805 56.4597 153.805 55.2917ZM172.029 55.5797H163.317C163.365 56.4117 163.637 57.0597 164.133 57.5237C164.629 57.9717 165.245 58.2437 165.981 58.3397C166.733 58.4357 167.509 58.3717 168.309 58.1477C169.125 57.9077 169.861 57.5077 170.517 56.9477L171.909 58.8917C171.077 59.5957 170.213 60.0997 169.317 60.4037C168.437 60.7077 167.557 60.8597 166.677 60.8597C164.661 60.8757 163.133 60.3157 162.093 59.1797C161.069 58.0277 160.557 56.4117 160.557 54.3317C160.557 52.5557 161.069 51.1397 162.093 50.0837C163.133 49.0277 164.565 48.4997 166.389 48.4997C168.981 48.5157 170.701 49.5317 171.549 51.5477C171.789 52.1077 171.941 52.7157 172.005 53.3717C172.069 54.0277 172.077 54.7637 172.029 55.5797ZM166.605 50.8997C165.581 50.8997 164.773 51.1717 164.181 51.7157C163.605 52.2437 163.317 52.9077 163.317 53.7077H169.797C169.797 52.9237 169.517 52.2597 168.957 51.7157C168.413 51.1717 167.629 50.8997 166.605 50.8997ZM185.002 60.6437H182.458V53.5877C182.458 52.8997 182.314 52.3717 182.026 52.0037C181.754 51.6357 181.41 51.3797 180.994 51.2357C180.594 51.0917 180.194 51.0197 179.794 51.0197C179.41 51.0197 178.986 51.0917 178.522 51.2357C178.058 51.3797 177.658 51.6437 177.322 52.0277C177.002 52.3957 176.842 52.9157 176.842 53.5877V60.6437H174.298V48.6437H176.842V49.6517C177.146 49.2357 177.594 48.9397 178.186 48.7637C178.794 48.5877 179.386 48.4997 179.962 48.4997C180.954 48.4997 181.826 48.7077 182.578 49.1237C183.346 49.5397 183.938 50.1317 184.354 50.8997C184.786 51.6517 185.002 52.5477 185.002 53.5877V60.6437ZM198.373 55.5797H189.661C189.709 56.4117 189.981 57.0597 190.477 57.5237C190.973 57.9717 191.589 58.2437 192.325 58.3397C193.077 58.4357 193.853 58.3717 194.653 58.1477C195.469 57.9077 196.205 57.5077 196.861 56.9477L198.253 58.8917C197.421 59.5957 196.557 60.0997 195.661 60.4037C194.781 60.7077 193.901 60.8597 193.021 60.8597C191.005 60.8757 189.477 60.3157 188.437 59.1797C187.413 58.0277 186.901 56.4117 186.901 54.3317C186.901 52.5557 187.413 51.1397 188.437 50.0837C189.477 49.0277 190.909 48.4997 192.733 48.4997C195.325 48.5157 197.045 49.5317 197.893 51.5477C198.133 52.1077 198.285 52.7157 198.349 53.3717C198.413 54.0277 198.421 54.7637 198.373 55.5797ZM192.949 50.8997C191.925 50.8997 191.117 51.1717 190.525 51.7157C189.949 52.2437 189.661 52.9077 189.661 53.7077H196.141C196.141 52.9237 195.861 52.2597 195.301 51.7157C194.757 51.1717 193.973 50.8997 192.949 50.8997ZM203.905 60.4997C203.121 60.2437 202.465 59.8197 201.937 59.2277C201.425 58.6357 201.041 57.9317 200.785 57.1157C200.529 56.2837 200.401 55.3957 200.401 54.4517C200.401 53.3317 200.601 52.3237 201.001 51.4277C201.417 50.5317 202.017 49.8197 202.801 49.2917C203.585 48.7477 204.553 48.4757 205.705 48.4757C206.089 48.4757 206.529 48.5157 207.025 48.5957C207.537 48.6757 207.985 48.8357 208.369 49.0757V43.8437H210.937V60.6437H208.369V59.6357C208.097 59.9397 207.697 60.1877 207.169 60.3797C206.657 60.5557 206.105 60.6597 205.513 60.6917C204.937 60.7237 204.401 60.6597 203.905 60.4997ZM208.369 57.4997V51.4997C207.441 51.1157 206.561 50.9797 205.729 51.0917C204.913 51.2037 204.249 51.5477 203.737 52.1237C203.225 52.6837 202.969 53.4597 202.969 54.4517C202.969 55.6037 203.225 56.5077 203.737 57.1637C204.265 57.8197 204.937 58.1877 205.753 58.2677C206.585 58.3317 207.457 58.0757 208.369 57.4997ZM218.913 60.9557C217.761 60.9557 216.745 60.7077 215.865 60.2117C215.001 59.6997 214.321 58.9957 213.825 58.0997C213.345 57.1877 213.105 56.1317 213.105 54.9317C213.105 53.5237 213.353 52.3477 213.849 51.4037C214.345 50.4437 215.025 49.7237 215.889 49.2437C216.769 48.7637 217.777 48.5237 218.913 48.5237C220.049 48.5237 221.049 48.7637 221.913 49.2437C222.793 49.7237 223.481 50.4437 223.977 51.4037C224.473 52.3477 224.721 53.5237 224.721 54.9317C224.721 56.1317 224.473 57.1877 223.977 58.0997C223.481 58.9957 222.793 59.6997 221.913 60.2117C221.049 60.7077 220.049 60.9557 218.913 60.9557ZM218.913 58.5077C219.633 58.5077 220.241 58.3397 220.737 58.0037C221.233 57.6677 221.609 57.2277 221.865 56.6837C222.137 56.1397 222.273 55.5557 222.273 54.9317C222.273 53.8117 221.985 52.8757 221.409 52.1237C220.833 51.3557 220.001 50.9717 218.913 50.9717C217.841 50.9717 217.009 51.3477 216.417 52.0997C215.841 52.8517 215.553 53.7957 215.553 54.9317C215.553 55.5717 215.681 56.1637 215.937 56.7077C216.209 57.2517 216.593 57.6917 217.089 58.0277C217.585 58.3477 218.193 58.5077 218.913 58.5077ZM226.891 60.6437V48.6917H229.435V49.6517C230.027 49.0277 230.739 48.6997 231.571 48.6677C232.419 48.6357 233.387 48.7877 234.475 49.1237L233.251 51.3317C232.611 51.1077 231.995 51.0517 231.403 51.1637C230.811 51.2757 230.331 51.4917 229.963 51.8117C229.595 52.1317 229.419 52.4997 229.435 52.9157V60.6437H226.891ZM246.42 55.5797H237.708C237.756 56.4117 238.028 57.0597 238.524 57.5237C239.02 57.9717 239.636 58.2437 240.372 58.3397C241.124 58.4357 241.9 58.3717 242.7 58.1477C243.516 57.9077 244.252 57.5077 244.908 56.9477L246.3 58.8917C245.468 59.5957 244.604 60.0997 243.708 60.4037C242.828 60.7077 241.948 60.8597 241.068 60.8597C239.052 60.8757 237.524 60.3157 236.484 59.1797C235.46 58.0277 234.948 56.4117 234.948 54.3317C234.948 52.5557 235.46 51.1397 236.484 50.0837C237.524 49.0277 238.956 48.4997 240.78 48.4997C243.372 48.5157 245.092 49.5317 245.94 51.5477C246.18 52.1077 246.332 52.7157 246.396 53.3717C246.46 54.0277 246.468 54.7637 246.42 55.5797ZM240.996 50.8997C239.972 50.8997 239.164 51.1717 238.572 51.7157C237.996 52.2437 237.708 52.9077 237.708 53.7077H244.188C244.188 52.9237 243.908 52.2597 243.348 51.7157C242.804 51.1717 242.02 50.8997 240.996 50.8997ZM248.448 59.0837L249.936 57.4757C250.864 58.2277 251.784 58.6037 252.696 58.6037C252.952 58.6037 253.2 58.5717 253.44 58.5077C253.68 58.4437 253.888 58.3317 254.064 58.1717C254.288 57.9957 254.432 57.7637 254.496 57.4757C254.56 57.1877 254.56 56.9397 254.496 56.7317C254.416 56.4117 254.208 56.1637 253.872 55.9877C253.536 55.8117 253.128 55.6517 252.648 55.5077C252.184 55.3637 251.704 55.1957 251.208 55.0037C250.728 54.8117 250.288 54.5557 249.888 54.2357C249.232 53.6757 248.84 53.0757 248.712 52.4357C248.584 51.7797 248.672 51.1637 248.976 50.5877C249.28 49.9957 249.744 49.5157 250.368 49.1477C251.008 48.7637 251.776 48.5557 252.672 48.5237C253.504 48.5077 254.272 48.6437 254.976 48.9317C255.68 49.2037 256.24 49.5637 256.656 50.0117L255.024 51.4997C254.736 51.2437 254.384 51.0597 253.968 50.9477C253.552 50.8197 253.16 50.7557 252.792 50.7557C252.376 50.7557 252.016 50.8437 251.712 51.0197C251.408 51.1957 251.248 51.4917 251.232 51.9077C251.232 52.3077 251.416 52.6197 251.784 52.8437C252.152 53.0677 252.616 53.2677 253.176 53.4437C253.752 53.6037 254.328 53.8197 254.904 54.0917C255.496 54.3637 255.976 54.7637 256.344 55.2917C256.712 55.8037 256.872 56.4677 256.824 57.2837C256.792 58.0517 256.576 58.6997 256.176 59.2277C255.792 59.7557 255.28 60.1557 254.64 60.4277C254.016 60.6837 253.336 60.8117 252.6 60.8117C251.864 60.8117 251.128 60.6757 250.392 60.4037C249.672 60.1157 249.024 59.6757 248.448 59.0837Z" fill="#4F5053"/>
<path d="M50.2753 87.1326V54.2083L20.4921 37.5815V70.5058L50.2753 87.1326ZM57.7517 87.1326L87.5079 70.5058V37.4728L57.7517 54.1906V87.1326ZM54 48.0578L83.3332 31.5495L54 15.1497L24.5813 31.5495L54 48.0578ZM16.6598 76.9468C15.4297 76.2497 14.4834 75.3305 13.821 74.1893C13.1587 73.0482 12.8275 71.8236 12.8275 70.5154V33.8224C12.8275 32.5143 13.1587 31.2896 13.821 30.1485C14.4834 29.0073 15.4297 28.0882 16.6598 27.3911L50.1677 8.71838C51.3858 8.06946 52.6694 7.745 54.0185 7.745C55.3676 7.745 56.6389 8.06946 57.8324 8.71838L91.3402 27.3911C92.5704 28.0882 93.5211 29.0073 94.1925 30.1485C94.8639 31.2896 95.1996 32.5143 95.1996 33.8224V70.5154C95.1996 71.8236 94.8639 73.0482 94.1925 74.1893C93.5211 75.3305 92.5704 76.2497 91.3402 76.9468L57.8324 95.5935C56.6143 96.2598 55.3307 96.5929 53.9816 96.5929C52.6325 96.5929 51.3612 96.2598 50.1677 95.5935L16.6598 76.9468Z" fill="#4F5053"/>
</svg>
