<svg width="258" height="97" viewBox="0 0 258 97" fill="none" xmlns="http://www.w3.org/2000/svg">
<path d="M123.352 30.552C123.352 31.704 123.144 32.792 122.728 33.816C122.312 34.84 121.728 35.744 120.976 36.528C120.24 37.296 119.376 37.904 118.384 38.352C117.408 38.784 116.352 39 115.216 39H110.2V22.128H115.216C116.368 22.128 117.432 22.352 118.408 22.8C119.4 23.248 120.264 23.864 121 24.648C121.736 25.416 122.312 26.312 122.728 27.336C123.144 28.344 123.352 29.416 123.352 30.552ZM120.712 30.552C120.712 29.464 120.464 28.48 119.968 27.6C119.488 26.72 118.832 26.024 118 25.512C117.184 24.984 116.256 24.72 115.216 24.72H112.768V36.408H115.216C116.256 36.408 117.192 36.144 118.024 35.616C118.856 35.088 119.512 34.384 119.992 33.504C120.472 32.608 120.712 31.624 120.712 30.552ZM136.713 33.936H128.001C128.049 34.768 128.321 35.416 128.817 35.88C129.313 36.328 129.929 36.6 130.665 36.696C131.417 36.792 132.193 36.728 132.993 36.504C133.809 36.264 134.545 35.864 135.201 35.304L136.593 37.248C135.761 37.952 134.897 38.456 134.001 38.76C133.121 39.064 132.241 39.216 131.361 39.216C129.345 39.232 127.817 38.672 126.777 37.536C125.753 36.384 125.241 34.768 125.241 32.688C125.241 30.912 125.753 29.496 126.777 28.44C127.817 27.384 129.249 26.856 131.073 26.856C133.665 26.872 135.385 27.888 136.233 29.904C136.473 30.464 136.625 31.072 136.689 31.728C136.753 32.384 136.761 33.12 136.713 33.936ZM131.289 29.256C130.265 29.256 129.457 29.528 128.865 30.072C128.289 30.6 128.001 31.264 128.001 32.064H134.481C134.481 31.28 134.201 30.616 133.641 30.072C133.097 29.528 132.313 29.256 131.289 29.256ZM138.741 37.44L140.229 35.832C141.157 36.584 142.077 36.96 142.989 36.96C143.245 36.96 143.493 36.928 143.733 36.864C143.973 36.8 144.181 36.688 144.357 36.528C144.581 36.352 144.725 36.12 144.789 35.832C144.853 35.544 144.853 35.296 144.789 35.088C144.709 34.768 144.501 34.52 144.165 34.344C143.829 34.168 143.421 34.008 142.941 33.864C142.477 33.72 141.997 33.552 141.501 33.36C141.021 33.168 140.581 32.912 140.181 32.592C139.525 32.032 139.133 31.432 139.005 30.792C138.877 30.136 138.965 29.52 139.269 28.944C139.573 28.352 140.037 27.872 140.661 27.504C141.301 27.12 142.069 26.912 142.965 26.88C143.797 26.864 144.565 27 145.269 27.288C145.973 27.56 146.533 27.92 146.949 28.368L145.317 29.856C145.029 29.6 144.677 29.416 144.261 29.304C143.845 29.176 143.453 29.112 143.085 29.112C142.669 29.112 142.309 29.2 142.005 29.376C141.701 29.552 141.541 29.848 141.525 30.264C141.525 30.664 141.709 30.976 142.077 31.2C142.445 31.424 142.909 31.624 143.469 31.8C144.045 31.96 144.621 32.176 145.197 32.448C145.789 32.72 146.269 33.12 146.637 33.648C147.005 34.16 147.165 34.824 147.117 35.64C147.085 36.408 146.869 37.056 146.469 37.584C146.085 38.112 145.573 38.512 144.933 38.784C144.309 39.04 143.629 39.168 142.893 39.168C142.157 39.168 141.421 39.032 140.685 38.76C139.965 38.472 139.317 38.032 138.741 37.44ZM152.587 39.12C151.419 39.072 150.499 38.736 149.827 38.112C149.155 37.488 148.819 36.608 148.819 35.472C148.819 34.624 149.019 33.912 149.419 33.336C149.835 32.744 150.395 32.28 151.099 31.944C151.803 31.608 152.595 31.408 153.475 31.344C154.371 31.264 155.291 31.32 156.235 31.512V30.744C156.235 30.28 156.083 29.92 155.779 29.664C155.491 29.408 155.107 29.24 154.627 29.16C154.163 29.08 153.659 29.08 153.115 29.16C152.587 29.24 152.083 29.4 151.603 29.64C151.139 29.864 150.763 30.152 150.475 30.504L149.011 28.92C149.571 28.328 150.243 27.864 151.027 27.528C151.827 27.192 152.651 26.992 153.499 26.928C154.363 26.864 155.171 26.944 155.923 27.168C156.691 27.376 157.339 27.736 157.867 28.248C158.395 28.712 158.691 29.336 158.755 30.12C158.819 30.904 158.851 31.784 158.851 32.76V39H156.259V37.896C155.731 38.344 155.147 38.664 154.507 38.856C153.867 39.048 153.227 39.136 152.587 39.12ZM156.187 35.808V33.384C154.443 33.224 153.163 33.32 152.347 33.672C151.547 34.008 151.147 34.6 151.147 35.448C151.147 35.976 151.323 36.36 151.675 36.6C152.043 36.824 152.491 36.936 153.019 36.936C153.563 36.92 154.115 36.816 154.675 36.624C155.251 36.416 155.755 36.144 156.187 35.808ZM161.247 39V27.048H163.791V28.008C164.383 27.384 165.095 27.056 165.927 27.024C166.775 26.992 167.743 27.144 168.831 27.48L167.607 29.688C166.967 29.464 166.351 29.408 165.759 29.52C165.167 29.632 164.687 29.848 164.319 30.168C163.951 30.488 163.775 30.856 163.791 31.272V39H161.247ZM170.763 39V27.048H173.307V28.008C173.899 27.384 174.611 27.056 175.443 27.024C176.291 26.992 177.259 27.144 178.347 27.48L177.123 29.688C176.483 29.464 175.867 29.408 175.275 29.52C174.683 29.632 174.203 29.848 173.835 30.168C173.467 30.488 173.291 30.856 173.307 31.272V39H170.763ZM184.651 39.312C183.499 39.312 182.483 39.064 181.603 38.568C180.739 38.056 180.059 37.352 179.563 36.456C179.083 35.544 178.843 34.488 178.843 33.288C178.843 31.88 179.091 30.704 179.587 29.76C180.083 28.8 180.763 28.08 181.627 27.6C182.507 27.12 183.515 26.88 184.651 26.88C185.787 26.88 186.787 27.12 187.651 27.6C188.531 28.08 189.219 28.8 189.715 29.76C190.211 30.704 190.459 31.88 190.459 33.288C190.459 34.488 190.211 35.544 189.715 36.456C189.219 37.352 188.531 38.056 187.651 38.568C186.787 39.064 185.787 39.312 184.651 39.312ZM184.651 36.864C185.371 36.864 185.979 36.696 186.475 36.36C186.971 36.024 187.347 35.584 187.603 35.04C187.875 34.496 188.011 33.912 188.011 33.288C188.011 32.168 187.723 31.232 187.147 30.48C186.571 29.712 185.739 29.328 184.651 29.328C183.579 29.328 182.747 29.704 182.155 30.456C181.579 31.208 181.291 32.152 181.291 33.288C181.291 33.928 181.419 34.52 181.675 35.064C181.947 35.608 182.331 36.048 182.827 36.384C183.323 36.704 183.931 36.864 184.651 36.864ZM195.174 39H192.63V22.2H195.174V39ZM203.143 39.312C201.991 39.312 200.975 39.064 200.095 38.568C199.231 38.056 198.551 37.352 198.055 36.456C197.575 35.544 197.335 34.488 197.335 33.288C197.335 31.88 197.583 30.704 198.079 29.76C198.575 28.8 199.255 28.08 200.119 27.6C200.999 27.12 202.007 26.88 203.143 26.88C204.279 26.88 205.279 27.12 206.143 27.6C207.023 28.08 207.711 28.8 208.207 29.76C208.703 30.704 208.951 31.88 208.951 33.288C208.951 34.488 208.703 35.544 208.207 36.456C207.711 37.352 207.023 38.056 206.143 38.568C205.279 39.064 204.279 39.312 203.143 39.312ZM203.143 36.864C203.863 36.864 204.471 36.696 204.967 36.36C205.463 36.024 205.839 35.584 206.095 35.04C206.367 34.496 206.503 33.912 206.503 33.288C206.503 32.168 206.215 31.232 205.639 30.48C205.063 29.712 204.231 29.328 203.143 29.328C202.071 29.328 201.239 29.704 200.647 30.456C200.071 31.208 199.783 32.152 199.783 33.288C199.783 33.928 199.911 34.52 200.167 35.064C200.439 35.608 200.823 36.048 201.319 36.384C201.815 36.704 202.423 36.864 203.143 36.864ZM112.744 70.8H110.2V54H112.744V54.672C113.736 54.112 114.72 53.856 115.696 53.904C116.688 53.952 117.592 54.248 118.408 54.792C119.224 55.32 119.88 56.048 120.376 56.976C120.872 57.904 121.12 58.976 121.12 60.192C121.12 61.312 120.88 62.32 120.4 63.216C119.92 64.112 119.264 64.824 118.432 65.352C117.6 65.88 116.664 66.152 115.624 66.168C115.24 66.168 114.76 66.12 114.184 66.024C113.608 65.944 113.128 65.776 112.744 65.52V70.8ZM112.744 63.072C113.736 63.568 114.672 63.768 115.552 63.672C116.448 63.576 117.168 63.232 117.712 62.64C118.256 62.032 118.528 61.216 118.528 60.192C118.528 59.328 118.36 58.608 118.024 58.032C117.704 57.44 117.264 57.008 116.704 56.736C116.144 56.448 115.52 56.336 114.832 56.4C114.16 56.464 113.464 56.712 112.744 57.144V63.072ZM134.252 60.936H125.54C125.588 61.768 125.86 62.416 126.356 62.88C126.852 63.328 127.468 63.6 128.204 63.696C128.956 63.792 129.732 63.728 130.532 63.504C131.348 63.264 132.084 62.864 132.74 62.304L134.132 64.248C133.3 64.952 132.436 65.456 131.54 65.76C130.66 66.064 129.78 66.216 128.9 66.216C126.884 66.232 125.356 65.672 124.316 64.536C123.292 63.384 122.78 61.768 122.78 59.688C122.78 57.912 123.292 56.496 124.316 55.44C125.356 54.384 126.788 53.856 128.612 53.856C131.204 53.872 132.924 54.888 133.772 56.904C134.012 57.464 134.164 58.072 134.228 58.728C134.292 59.384 134.3 60.12 134.252 60.936ZM128.828 56.256C127.804 56.256 126.996 56.528 126.404 57.072C125.828 57.6 125.54 58.264 125.54 59.064H132.02C132.02 58.28 131.74 57.616 131.18 57.072C130.636 56.528 129.852 56.256 128.828 56.256ZM136.52 66V54.048H139.064V55.008C139.656 54.384 140.368 54.056 141.2 54.024C142.048 53.992 143.016 54.144 144.104 54.48L142.88 56.688C142.24 56.464 141.624 56.408 141.032 56.52C140.44 56.632 139.96 56.848 139.592 57.168C139.224 57.488 139.048 57.856 139.064 58.272V66H136.52ZM144.601 64.44L146.089 62.832C147.017 63.584 147.937 63.96 148.849 63.96C149.105 63.96 149.353 63.928 149.593 63.864C149.833 63.8 150.041 63.688 150.217 63.528C150.441 63.352 150.585 63.12 150.649 62.832C150.713 62.544 150.713 62.296 150.649 62.088C150.569 61.768 150.361 61.52 150.025 61.344C149.689 61.168 149.281 61.008 148.801 60.864C148.337 60.72 147.857 60.552 147.361 60.36C146.881 60.168 146.441 59.912 146.041 59.592C145.385 59.032 144.993 58.432 144.865 57.792C144.737 57.136 144.825 56.52 145.129 55.944C145.433 55.352 145.897 54.872 146.521 54.504C147.161 54.12 147.929 53.912 148.825 53.88C149.657 53.864 150.425 54 151.129 54.288C151.833 54.56 152.393 54.92 152.809 55.368L151.177 56.856C150.889 56.6 150.537 56.416 150.121 56.304C149.705 56.176 149.313 56.112 148.945 56.112C148.529 56.112 148.169 56.2 147.865 56.376C147.561 56.552 147.401 56.848 147.385 57.264C147.385 57.664 147.569 57.976 147.937 58.2C148.305 58.424 148.769 58.624 149.329 58.8C149.905 58.96 150.481 59.176 151.057 59.448C151.649 59.72 152.129 60.12 152.497 60.648C152.865 61.16 153.025 61.824 152.977 62.64C152.945 63.408 152.729 64.056 152.329 64.584C151.945 65.112 151.433 65.512 150.793 65.784C150.169 66.04 149.489 66.168 148.753 66.168C148.017 66.168 147.281 66.032 146.545 65.76C145.825 65.472 145.177 65.032 144.601 64.44ZM160.487 66.312C159.335 66.312 158.319 66.064 157.439 65.568C156.575 65.056 155.895 64.352 155.399 63.456C154.919 62.544 154.679 61.488 154.679 60.288C154.679 58.88 154.927 57.704 155.423 56.76C155.919 55.8 156.599 55.08 157.463 54.6C158.343 54.12 159.351 53.88 160.487 53.88C161.623 53.88 162.623 54.12 163.487 54.6C164.367 55.08 165.055 55.8 165.551 56.76C166.047 57.704 166.295 58.88 166.295 60.288C166.295 61.488 166.047 62.544 165.551 63.456C165.055 64.352 164.367 65.056 163.487 65.568C162.623 66.064 161.623 66.312 160.487 66.312ZM160.487 63.864C161.207 63.864 161.815 63.696 162.311 63.36C162.807 63.024 163.183 62.584 163.439 62.04C163.711 61.496 163.847 60.912 163.847 60.288C163.847 59.168 163.559 58.232 162.983 57.48C162.407 56.712 161.575 56.328 160.487 56.328C159.415 56.328 158.583 56.704 157.991 57.456C157.415 58.208 157.127 59.152 157.127 60.288C157.127 60.928 157.255 61.52 157.511 62.064C157.783 62.608 158.167 63.048 158.663 63.384C159.159 63.704 159.767 63.864 160.487 63.864ZM179.17 66H176.626V58.944C176.626 58.256 176.482 57.728 176.194 57.36C175.922 56.992 175.578 56.736 175.162 56.592C174.762 56.448 174.362 56.376 173.962 56.376C173.578 56.376 173.154 56.448 172.69 56.592C172.226 56.736 171.826 57 171.49 57.384C171.17 57.752 171.01 58.272 171.01 58.944V66H168.466V54H171.01V55.008C171.314 54.592 171.762 54.296 172.354 54.12C172.962 53.944 173.554 53.856 174.13 53.856C175.122 53.856 175.994 54.064 176.746 54.48C177.514 54.896 178.106 55.488 178.522 56.256C178.954 57.008 179.17 57.904 179.17 58.944V66ZM184.861 66.12C183.693 66.072 182.773 65.736 182.101 65.112C181.429 64.488 181.093 63.608 181.093 62.472C181.093 61.624 181.293 60.912 181.693 60.336C182.109 59.744 182.669 59.28 183.373 58.944C184.077 58.608 184.869 58.408 185.749 58.344C186.645 58.264 187.565 58.32 188.509 58.512V57.744C188.509 57.28 188.357 56.92 188.053 56.664C187.765 56.408 187.381 56.24 186.901 56.16C186.437 56.08 185.933 56.08 185.389 56.16C184.861 56.24 184.357 56.4 183.877 56.64C183.413 56.864 183.037 57.152 182.749 57.504L181.285 55.92C181.845 55.328 182.517 54.864 183.301 54.528C184.101 54.192 184.925 53.992 185.773 53.928C186.637 53.864 187.445 53.944 188.197 54.168C188.965 54.376 189.613 54.736 190.141 55.248C190.669 55.712 190.965 56.336 191.029 57.12C191.093 57.904 191.125 58.784 191.125 59.76V66H188.533V64.896C188.005 65.344 187.421 65.664 186.781 65.856C186.141 66.048 185.501 66.136 184.861 66.12ZM188.461 62.808V60.384C186.717 60.224 185.437 60.32 184.621 60.672C183.821 61.008 183.421 61.6 183.421 62.448C183.421 62.976 183.597 63.36 183.949 63.6C184.317 63.824 184.765 63.936 185.293 63.936C185.837 63.92 186.389 63.816 186.949 63.624C187.525 63.416 188.029 63.144 188.461 62.808ZM196.064 66H193.52V49.2H196.064V66ZM200.05 52.536C199.618 52.536 199.242 52.384 198.922 52.08C198.618 51.76 198.466 51.376 198.466 50.928C198.466 50.496 198.618 50.128 198.922 49.824C199.242 49.52 199.618 49.368 200.05 49.368C200.498 49.368 200.874 49.52 201.178 49.824C201.482 50.128 201.634 50.496 201.634 50.928C201.634 51.376 201.482 51.76 201.178 52.08C200.874 52.384 200.498 52.536 200.05 52.536ZM201.25 66H198.874V54H201.25V66ZM213.164 66H203.804V64.008L209.972 56.448H203.972V54H213.164V56.112L207.044 63.552H213.164V66ZM218.845 66.12C217.677 66.072 216.757 65.736 216.085 65.112C215.413 64.488 215.077 63.608 215.077 62.472C215.077 61.624 215.277 60.912 215.677 60.336C216.093 59.744 216.653 59.28 217.357 58.944C218.061 58.608 218.853 58.408 219.733 58.344C220.629 58.264 221.549 58.32 222.493 58.512V57.744C222.493 57.28 222.341 56.92 222.037 56.664C221.749 56.408 221.365 56.24 220.885 56.16C220.421 56.08 219.917 56.08 219.373 56.16C218.845 56.24 218.341 56.4 217.861 56.64C217.397 56.864 217.021 57.152 216.733 57.504L215.269 55.92C215.829 55.328 216.501 54.864 217.285 54.528C218.085 54.192 218.909 53.992 219.757 53.928C220.621 53.864 221.429 53.944 222.181 54.168C222.949 54.376 223.597 54.736 224.125 55.248C224.653 55.712 224.949 56.336 225.013 57.12C225.077 57.904 225.109 58.784 225.109 59.76V66H222.517V64.896C221.989 65.344 221.405 65.664 220.765 65.856C220.125 66.048 219.485 66.136 218.845 66.12ZM222.445 62.808V60.384C220.701 60.224 219.421 60.32 218.605 60.672C217.805 61.008 217.405 61.6 217.405 62.448C217.405 62.976 217.581 63.36 217.933 63.6C218.301 63.824 218.749 63.936 219.277 63.936C219.821 63.92 220.373 63.816 220.933 63.624C221.509 63.416 222.013 63.144 222.445 62.808ZM230.769 65.856C229.985 65.6 229.329 65.176 228.801 64.584C228.289 63.992 227.905 63.288 227.649 62.472C227.393 61.64 227.265 60.752 227.265 59.808C227.265 58.688 227.465 57.68 227.865 56.784C228.281 55.888 228.881 55.176 229.665 54.648C230.449 54.104 231.417 53.832 232.569 53.832C232.953 53.832 233.393 53.872 233.889 53.952C234.401 54.032 234.849 54.192 235.233 54.432V49.2H237.801V66H235.233V64.992C234.961 65.296 234.561 65.544 234.033 65.736C233.521 65.912 232.969 66.016 232.377 66.048C231.801 66.08 231.265 66.016 230.769 65.856ZM235.233 62.856V56.856C234.305 56.472 233.425 56.336 232.593 56.448C231.777 56.56 231.113 56.904 230.601 57.48C230.089 58.04 229.833 58.816 229.833 59.808C229.833 60.96 230.089 61.864 230.601 62.52C231.129 63.176 231.801 63.544 232.617 63.624C233.449 63.688 234.321 63.432 235.233 62.856ZM245.776 66.312C244.624 66.312 243.608 66.064 242.728 65.568C241.864 65.056 241.184 64.352 240.688 63.456C240.208 62.544 239.968 61.488 239.968 60.288C239.968 58.88 240.216 57.704 240.712 56.76C241.208 55.8 241.888 55.08 242.752 54.6C243.632 54.12 244.64 53.88 245.776 53.88C246.912 53.88 247.912 54.12 248.776 54.6C249.656 55.08 250.344 55.8 250.84 56.76C251.336 57.704 251.584 58.88 251.584 60.288C251.584 61.488 251.336 62.544 250.84 63.456C250.344 64.352 249.656 65.056 248.776 65.568C247.912 66.064 246.912 66.312 245.776 66.312ZM245.776 63.864C246.496 63.864 247.104 63.696 247.6 63.36C248.096 63.024 248.472 62.584 248.728 62.04C249 61.496 249.136 60.912 249.136 60.288C249.136 59.168 248.848 58.232 248.272 57.48C247.696 56.712 246.864 56.328 245.776 56.328C244.704 56.328 243.872 56.704 243.28 57.456C242.704 58.208 242.416 59.152 242.416 60.288C242.416 60.928 242.544 61.52 242.8 62.064C243.072 62.608 243.456 63.048 243.952 63.384C244.448 63.704 245.056 63.864 245.776 63.864Z" fill="#4F5053"/>
<path d="M34.7583 63.05L20.2083 48.5L34.7583 33.95L40.4167 39.7094L31.626 48.5L40.4167 57.2906L34.7583 63.05ZM62.2417 63.05L56.5833 57.2906L65.374 48.5L56.5833 39.7094L62.2417 33.95L76.7917 48.5L62.2417 63.05ZM20.2083 84.875C17.9854 84.875 16.0825 84.0835 14.4995 82.5005C12.9165 80.9175 12.125 79.0146 12.125 76.7917V60.625H20.2083V76.7917H36.375V84.875H20.2083ZM60.625 84.875V76.7917H76.7917V60.625H84.875V76.7917C84.875 79.0146 84.0835 80.9175 82.5005 82.5005C80.9175 84.0835 79.0146 84.875 76.7917 84.875H60.625ZM12.125 36.375V20.2083C12.125 17.9854 12.9165 16.0825 14.4995 14.4995C16.0825 12.9165 17.9854 12.125 20.2083 12.125H36.375V20.2083H20.2083V36.375H12.125ZM76.7917 36.375V20.2083H60.625V12.125H76.7917C79.0146 12.125 80.9175 12.9165 82.5005 14.4995C84.0835 16.0825 84.875 17.9854 84.875 20.2083V36.375H76.7917Z" fill="#4F5053"/>
</svg>
