<svg width="249" height="84" viewBox="0 0 249 84" fill="none" xmlns="http://www.w3.org/2000/svg">
<g clip-path="url(#clip0_20_29)">
<path d="M114.692 38.7692H103.385V22.6154C103.385 19.0909 100.408 16.1538 96.9231 16.1538H72.6923C69.1858 16.1538 66.2308 19.0909 66.2308 22.6154V38.7692H50.0769V6.54856C50.0769 2.93706 47.2301 0 43.6154 0H28.9396C25.3465 0 22.6154 2.93706 22.6154 6.54856V38.7692H3.23077C1.30435 38.7692 0 40.0528 0 41.9891C0 43.9254 1.30435 45.2308 3.23077 45.2308H22.6154V77.5385C22.6154 81.15 25.4838 84 29.0769 84H43.6154C47.2301 84 50.0769 81.0629 50.0769 77.4514V45.2308H66.2308V61.3846C66.2308 64.8873 69.1858 67.8462 72.6923 67.8462H96.9231C100.408 67.8462 103.385 64.8873 103.385 61.3846V45.2308H114.692C116.619 45.2308 117.923 43.9254 117.923 41.9891C117.923 40.0528 116.619 38.7692 114.692 38.7692ZM71.0769 25.8462C71.0769 23.2137 71.6886 21 74.3077 21H82.3846C83.5751 21 84 22.2265 84 23.4231C84 24.6197 83.5751 25.8462 82.3846 25.8462H75.9231C75.9231 25.6286 75.9231 26.4988 75.9231 25.8462V33.9231C75.9231 35.1197 74.6905 35.5385 73.5 35.5385C72.3095 35.5385 71.0769 35.1197 71.0769 33.9231V25.8462ZM27.4615 10.0295C27.4615 7.37529 28.0732 4.84615 30.6923 4.84615H35.5385C36.7506 4.84615 37.1538 6.07265 37.1538 7.26923C37.1538 8.46581 36.7506 9.69231 35.5385 9.69231H32.3077C32.0696 9.69231 32.3077 9.45299 32.3077 9.69231V17.7692C32.3077 18.9658 31.0751 19.3846 29.8846 19.3846C28.6941 19.3846 27.4615 18.9658 27.4615 17.7692V10.0295Z" fill="#0045D0"/>
</g>
<path d="M143.137 34.8462C143.03 34.8462 142.977 34.7929 142.977 34.6862L143.009 12.7022C143.009 12.6169 143.052 12.5742 143.137 12.5742H146.721C146.806 12.5742 146.849 12.6169 146.849 12.7022L146.881 34.6862C146.881 34.7929 146.838 34.8462 146.753 34.8462H143.137ZM149.824 34.8462C149.739 34.8462 149.696 34.7929 149.696 34.6862L149.76 12.7022C149.76 12.6169 149.803 12.5742 149.888 12.5742H153.792C153.877 12.5742 153.952 12.6169 154.016 12.7022L156.928 16.9262L159.84 12.7022C159.904 12.6169 159.979 12.5742 160.064 12.5742H164C164.085 12.5742 164.128 12.6169 164.128 12.7022L164.192 34.6862C164.192 34.7929 164.149 34.8462 164.064 34.8462H160.448C160.363 34.8462 160.32 34.7929 160.32 34.6862L160.288 18.3662L156.928 23.2302L153.6 18.3662L153.568 34.6862C153.568 34.7929 153.525 34.8462 153.44 34.8462H149.824ZM167.043 34.8462C166.937 34.8462 166.883 34.7929 166.883 34.6862L166.947 12.7022C166.947 12.6169 166.99 12.5742 167.075 12.5742H173.219C175.182 12.5742 176.729 13.1715 177.859 14.3662C179.011 15.5609 179.587 17.1822 179.587 19.2302C179.587 20.7449 179.289 22.0569 178.691 23.1662C178.094 24.2755 177.315 25.1289 176.355 25.7262C175.395 26.3235 174.35 26.6222 173.219 26.6222H170.787V34.6862C170.787 34.7929 170.734 34.8462 170.627 34.8462H167.043ZM170.787 22.7502H173.219C173.902 22.7502 174.489 22.4302 174.979 21.7902C175.491 21.1289 175.747 20.2755 175.747 19.2302C175.747 18.3982 175.523 17.7155 175.075 17.1822C174.627 16.6489 174.009 16.3822 173.219 16.3822L170.787 16.4142V22.7502ZM179.077 34.6862L183.045 12.7022C183.066 12.6169 183.119 12.5742 183.205 12.5742H187.845C187.93 12.5742 187.983 12.6169 188.005 12.7022L191.813 34.6862C191.834 34.7929 191.791 34.8462 191.685 34.8462H188.133C188.047 34.8462 187.994 34.7929 187.973 34.6862L187.621 32.3502H183.269L182.917 34.6862C182.895 34.7929 182.842 34.8462 182.757 34.8462H179.205C179.119 34.8462 179.077 34.7929 179.077 34.6862ZM183.909 28.9262H186.981L185.669 19.9342L185.477 18.7502L185.349 19.9342L183.909 28.9262ZM199.021 35.1662C197.848 35.1662 196.781 34.8782 195.821 34.3022C194.883 33.7049 194.136 32.9155 193.581 31.9342C193.027 30.9529 192.749 29.8542 192.749 28.6382L192.781 18.6542C192.781 17.4809 193.048 16.4142 193.581 15.4542C194.136 14.4729 194.883 13.6942 195.821 13.1182C196.781 12.5209 197.848 12.2222 199.021 12.2222C200.195 12.2222 201.251 12.5102 202.189 13.0862C203.128 13.6622 203.875 14.4409 204.429 15.4222C204.984 16.3822 205.261 17.4595 205.261 18.6542V20.1262C205.261 20.2115 205.219 20.2542 205.133 20.2542H201.549C201.464 20.2542 201.421 20.2115 201.421 20.1262V18.6542C201.421 17.9502 201.187 17.3422 200.717 16.8302C200.269 16.3182 199.704 16.0622 199.021 16.0622C198.253 16.0622 197.667 16.3289 197.261 16.8622C196.856 17.3742 196.653 17.9715 196.653 18.6542V28.6382C196.653 29.4275 196.877 30.0675 197.325 30.5582C197.795 31.0489 198.36 31.2942 199.021 31.2942C199.704 31.2942 200.269 31.0275 200.717 30.4942C201.187 29.9395 201.421 29.3209 201.421 28.6382V27.1662C201.421 27.0809 201.464 27.0382 201.549 27.0382H205.165C205.251 27.0382 205.293 27.0809 205.293 27.1662V28.6382C205.293 29.8542 205.005 30.9529 204.429 31.9342C203.875 32.9155 203.128 33.7049 202.189 34.3022C201.251 34.8782 200.195 35.1662 199.021 35.1662ZM210.427 34.8462C210.342 34.8462 210.299 34.7929 210.299 34.6862V16.4462H206.139C206.032 16.4462 205.979 16.3929 205.979 16.2862L206.011 12.7022C206.011 12.6169 206.054 12.5742 206.139 12.5742H218.299C218.406 12.5742 218.459 12.6169 218.459 12.7022V16.2862C218.459 16.3929 218.416 16.4462 218.331 16.4462H214.139L214.171 34.6862C214.171 34.7929 214.128 34.8462 214.043 34.8462H210.427ZM225.647 35.1662C224.495 35.1662 223.439 34.8782 222.479 34.3022C221.54 33.7049 220.783 32.9262 220.207 31.9662C219.631 30.9849 219.343 29.9075 219.343 28.7342L219.375 18.5902C219.375 17.4169 219.652 16.3502 220.207 15.3902C220.783 14.4302 221.551 13.6622 222.511 13.0862C223.471 12.5102 224.516 12.2222 225.647 12.2222C226.799 12.2222 227.844 12.5102 228.783 13.0862C229.722 13.6622 230.468 14.4302 231.023 15.3902C231.599 16.3502 231.887 17.4169 231.887 18.5902L231.919 28.7342C231.919 29.9075 231.631 30.9849 231.055 31.9662C230.5 32.9262 229.743 33.7049 228.783 34.3022C227.844 34.8782 226.799 35.1662 225.647 35.1662ZM225.647 31.2942C226.287 31.2942 226.842 31.0382 227.311 30.5262C227.802 29.9929 228.047 29.3955 228.047 28.7342L228.015 18.5902C228.015 17.8862 227.791 17.2889 227.343 16.7982C226.895 16.3075 226.33 16.0622 225.647 16.0622C224.986 16.0622 224.42 16.3075 223.951 16.7982C223.482 17.2675 223.247 17.8649 223.247 18.5902V28.7342C223.247 29.4382 223.482 30.0462 223.951 30.5582C224.42 31.0489 224.986 31.2942 225.647 31.2942Z" fill="#0045D0"/>
<path d="M166.598 67.1538C166.512 67.1538 166.459 67.1005 166.438 66.9938L162.662 45.0098C162.64 44.9245 162.672 44.8818 162.758 44.8818H166.342C166.427 44.8818 166.48 44.9245 166.502 45.0098L168.55 59.4738L170.662 45.0098C170.683 44.9245 170.747 44.8818 170.854 44.8818H173.734C173.819 44.8818 173.872 44.9245 173.894 45.0098L175.974 59.4738L178.054 45.0098C178.075 44.9245 178.128 44.8818 178.214 44.8818H181.766C181.872 44.8818 181.915 44.9245 181.894 45.0098L178.086 66.9938C178.064 67.0365 178.032 67.0791 177.99 67.1218C177.947 67.1431 177.926 67.1538 177.926 67.1538H174.054C173.99 67.1538 173.936 67.1005 173.894 66.9938L172.262 55.5058L170.63 66.9938C170.608 67.1005 170.555 67.1538 170.47 67.1538H166.598ZM183.907 67.1538C183.821 67.1538 183.779 67.1005 183.779 66.9938L183.811 45.0098C183.811 44.9245 183.853 44.8818 183.939 44.8818H194.211C194.296 44.8818 194.339 44.9351 194.339 45.0418V48.6258C194.339 48.7111 194.296 48.7538 194.211 48.7538H187.651V53.7458H194.211C194.296 53.7458 194.339 53.7885 194.339 53.8738L194.371 57.4898C194.371 57.5751 194.328 57.6178 194.243 57.6178H187.651V63.2178H194.243C194.328 63.2178 194.371 63.2711 194.371 63.3778V67.0258C194.371 67.1111 194.328 67.1538 194.243 67.1538H183.907ZM197.344 67.1538C197.259 67.1538 197.216 67.1005 197.216 66.9938L197.28 45.0098C197.28 44.9245 197.323 44.8818 197.408 44.8818H203.552C204.768 44.8818 205.856 45.1805 206.816 45.7778C207.776 46.3538 208.534 47.1218 209.088 48.0818C209.643 49.0418 209.92 50.0871 209.92 51.2178C209.92 52.1351 209.707 52.9885 209.28 53.7778C208.875 54.5671 208.384 55.2071 207.808 55.6978C208.427 56.3165 208.907 57.0311 209.248 57.8418C209.59 58.6525 209.76 59.5058 209.76 60.4018C209.76 61.6391 209.462 62.7698 208.864 63.7938C208.267 64.8178 207.456 65.6391 206.432 66.2578C205.43 66.8551 204.31 67.1538 203.072 67.1538H197.344ZM201.12 53.7138H203.552C204.299 53.7138 204.896 53.4578 205.344 52.9458C205.814 52.4125 206.048 51.8365 206.048 51.2178C206.048 50.5351 205.803 49.9485 205.312 49.4578C204.822 48.9458 204.235 48.6898 203.552 48.6898H201.12V53.7138ZM201.088 63.2498H203.072C203.84 63.2498 204.502 62.9725 205.056 62.4178C205.611 61.8418 205.888 61.1698 205.888 60.4018C205.888 59.6338 205.611 58.9725 205.056 58.4178C204.502 57.8631 203.84 57.5858 203.072 57.5858H201.12L201.088 63.2498Z" fill="#0037A6"/>
<defs>
<clipPath id="clip0_20_29">
<rect width="117.923" height="84" fill="white"/>
</clipPath>
</defs>
</svg>
