<svg width="63" height="70" viewBox="0 0 63 70" fill="none" xmlns="http://www.w3.org/2000/svg">
<path d="M14.8244 67.0834C13.7567 67.0834 12.8428 66.655 12.0825 65.7982C11.3222 64.9414 10.942 63.9115 10.942 62.7084V7.29169C10.942 6.08856 11.3222 5.05861 12.0825 4.20184C12.8428 3.34507 13.7567 2.91669 14.8244 2.91669H43.2953C44.3629 2.91669 45.2769 3.34507 46.0372 4.20184C46.7975 5.05861 47.1776 6.08856 47.1776 7.29169V17.9375H43.2953V13.8542H14.8244V56.1459H43.2953V52.0625H47.1776V62.7084C47.1776 63.9115 46.7975 64.9414 46.0372 65.7982C45.2769 66.655 44.3629 67.0834 43.2953 67.0834H14.8244ZM14.8244 60.5209V62.7084H43.2953V60.5209H14.8244ZM39.2835 46.6667L28.2834 34.2709L31.0657 31.2084L39.2835 40.4688L54.7483 23.0417L57.5307 26.1042L39.2835 46.6667ZM14.8244 9.47919H43.2953V7.29169H14.8244V9.47919Z" fill="#0045D0"/>
</svg>
