<svg width="287" height="296" viewBox="0 0 287 296" fill="none" xmlns="http://www.w3.org/2000/svg">
<path d="M287 4.23682L257.637 36.2686L221.31 50.1739C211.505 72.1296 205.793 80.5716 173.775 89.1384L184.985 64.0597L164.609 65.2482L155.502 41.5779L171.056 27.7911L145.941 16.619C172.902 1.07629 186.09 0.351772 207.384 13.9047L243.711 -1.89223e-06L287 4.23871L287 4.23682ZM148.36 63.268C132.387 73.6192 117.524 87.3661 105.051 103.242C105.04 103.256 105.023 103.266 105.011 103.28C89.9691 126.925 86.5123 156.063 95.0513 178.138C85.4927 167.846 81.9063 154.282 82.8897 140.64C73.4467 171.96 77.101 205.499 91.9556 229.145C79.6811 220.181 72.135 207.281 68.7245 193.033C66.6117 230.387 81.2899 267.763 122.053 296L15.3765 295.999C-2.8125 254.22 2.92038 210.331 22.7156 171.62L4.9666e-06 182.377L53.9829 126.516L53.9829 126.575C55.1231 125.307 56.2684 124.057 57.4353 122.813L29.5411 129.963L92.6711 92.0492C110.168 79.5821 129.102 69.7037 148.36 63.268Z" fill="#F4F4F4"/>
</svg>
