<svg width="87" height="88" viewBox="0 0 87 88" fill="none" xmlns="http://www.w3.org/2000/svg">
<path d="M87 44C87 68.3005 67.5244 88 43.5 88C19.4756 88 0 68.3005 0 44C0 19.6995 19.4756 0 43.5 0C67.5244 0 87 19.6995 87 44Z" fill="#002774"/>
<path d="M61.4438 65.78C57.1373 65.78 52.6513 64.6406 47.986 62.3617C43.3206 60.0829 38.9543 56.8865 34.887 52.7725C30.7799 48.6585 27.5999 44.242 25.3469 39.523C23.094 34.804 21.9675 30.2463 21.9675 25.85V22.22H34.8272L37.2197 33.6545L30.2217 40.854C31.3382 42.669 32.4846 44.3529 33.6609 45.9057C34.8372 47.4586 36.0633 48.8803 37.3393 50.171C38.7748 51.623 40.31 52.9842 41.9449 54.2547C43.5798 55.5252 45.3343 56.6848 47.2084 57.7335L54.2065 50.413L65.0325 52.7725V65.78H61.4438ZM28.4871 37.466L33.3319 32.505L31.9562 25.85H25.5563C25.5563 27.3826 25.7856 29.0968 26.2441 30.9925C26.7027 32.8881 27.4503 35.046 28.4871 37.466ZM50.5579 59.4275C52.1928 60.1938 53.9672 60.819 55.8812 61.303C57.7952 61.787 59.6494 62.0693 61.4438 62.15V55.6765L55.2831 54.406L50.5579 59.4275Z" fill="white"/>
</svg>
