<svg width="54" height="54" viewBox="0 0 54 54" fill="none" xmlns="http://www.w3.org/2000/svg">
<path d="M17.85 26.4L10.575 19.2L13.725 16.05L17.775 20.1L25.275 12.6L28.425 15.75L17.85 26.4ZM49.8 54L30.9 35.1C29.4 36.3 27.675 37.25 25.725 37.95C23.775 38.65 21.7 39 19.5 39C14.05 39 9.4375 37.1125 5.6625 33.3375C1.8875 29.5625 0 24.95 0 19.5C0 14.05 1.8875 9.4375 5.6625 5.6625C9.4375 1.8875 14.05 0 19.5 0C24.95 0 29.5625 1.8875 33.3375 5.6625C37.1125 9.4375 39 14.05 39 19.5C39 21.7 38.65 23.775 37.95 25.725C37.25 27.675 36.3 29.4 35.1 30.9L54 49.8L49.8 54ZM19.5 33C23.25 33 26.4375 31.6875 29.0625 29.0625C31.6875 26.4375 33 23.25 33 19.5C33 15.75 31.6875 12.5625 29.0625 9.9375C26.4375 7.3125 23.25 6 19.5 6C15.75 6 12.5625 7.3125 9.9375 9.9375C7.3125 12.5625 6 15.75 6 19.5C6 23.25 7.3125 26.4375 9.9375 29.0625C12.5625 31.6875 15.75 33 19.5 33Z" fill="white"/>
</svg>
