<svg width="205" height="104" viewBox="0 0 205 104" fill="none" xmlns="http://www.w3.org/2000/svg">
<path d="M111.2 50V33.2H117.56C118.424 33.2 119.176 33.416 119.816 33.848C120.472 34.28 120.976 34.848 121.328 35.552C121.696 36.256 121.88 37.024 121.88 37.856C121.88 39.024 121.512 40.096 120.776 41.072C121.384 41.552 121.848 42.128 122.168 42.8C122.504 43.472 122.672 44.192 122.672 44.96C122.672 45.584 122.552 46.192 122.312 46.784C122.088 47.376 121.776 47.92 121.376 48.416C120.976 48.896 120.504 49.28 119.96 49.568C119.432 49.856 118.872 50 118.28 50H111.2ZM113.816 40.328H117.488C117.808 40.328 118.104 40.208 118.376 39.968C118.648 39.728 118.864 39.416 119.024 39.032C119.184 38.648 119.264 38.256 119.264 37.856C119.264 37.328 119.112 36.864 118.808 36.464C118.504 36.048 118.088 35.84 117.56 35.84H113.816V40.328ZM113.816 47.36H118.28C118.6 47.36 118.888 47.24 119.144 47C119.416 46.76 119.632 46.456 119.792 46.088C119.968 45.72 120.056 45.344 120.056 44.96C120.056 44.384 119.896 43.896 119.576 43.496C119.256 43.08 118.848 42.872 118.352 42.872H113.816V47.36ZM128.369 50.12C127.201 50.072 126.281 49.736 125.609 49.112C124.937 48.488 124.601 47.608 124.601 46.472C124.601 45.624 124.801 44.912 125.201 44.336C125.617 43.744 126.177 43.28 126.881 42.944C127.585 42.608 128.377 42.408 129.257 42.344C130.153 42.264 131.073 42.32 132.017 42.512V41.744C132.017 41.28 131.865 40.92 131.561 40.664C131.273 40.408 130.889 40.24 130.409 40.16C129.945 40.08 129.441 40.08 128.897 40.16C128.369 40.24 127.865 40.4 127.385 40.64C126.921 40.864 126.545 41.152 126.257 41.504L124.793 39.92C125.353 39.328 126.025 38.864 126.809 38.528C127.609 38.192 128.433 37.992 129.281 37.928C130.145 37.864 130.953 37.944 131.705 38.168C132.473 38.376 133.121 38.736 133.649 39.248C134.177 39.712 134.473 40.336 134.537 41.12C134.601 41.904 134.633 42.784 134.633 43.76V50H132.041V48.896C131.513 49.344 130.929 49.664 130.289 49.856C129.649 50.048 129.009 50.136 128.369 50.12ZM131.969 46.808V44.384C130.225 44.224 128.945 44.32 128.129 44.672C127.329 45.008 126.929 45.6 126.929 46.448C126.929 46.976 127.105 47.36 127.457 47.6C127.825 47.824 128.273 47.936 128.801 47.936C129.345 47.92 129.897 47.816 130.457 47.624C131.033 47.416 131.537 47.144 131.969 46.808ZM136.788 48.44L138.276 46.832C139.204 47.584 140.124 47.96 141.036 47.96C141.292 47.96 141.54 47.928 141.78 47.864C142.02 47.8 142.228 47.688 142.404 47.528C142.628 47.352 142.772 47.12 142.836 46.832C142.9 46.544 142.9 46.296 142.836 46.088C142.756 45.768 142.548 45.52 142.212 45.344C141.876 45.168 141.468 45.008 140.988 44.864C140.524 44.72 140.044 44.552 139.548 44.36C139.068 44.168 138.628 43.912 138.228 43.592C137.572 43.032 137.18 42.432 137.052 41.792C136.924 41.136 137.012 40.52 137.316 39.944C137.62 39.352 138.084 38.872 138.708 38.504C139.348 38.12 140.116 37.912 141.012 37.88C141.844 37.864 142.612 38 143.316 38.288C144.02 38.56 144.58 38.92 144.996 39.368L143.364 40.856C143.076 40.6 142.724 40.416 142.308 40.304C141.892 40.176 141.5 40.112 141.132 40.112C140.716 40.112 140.356 40.2 140.052 40.376C139.748 40.552 139.588 40.848 139.572 41.264C139.572 41.664 139.756 41.976 140.124 42.2C140.492 42.424 140.956 42.624 141.516 42.8C142.092 42.96 142.668 43.176 143.244 43.448C143.836 43.72 144.316 44.12 144.684 44.648C145.052 45.16 145.212 45.824 145.164 46.64C145.132 47.408 144.916 48.056 144.516 48.584C144.132 49.112 143.62 49.512 142.98 49.784C142.356 50.04 141.676 50.168 140.94 50.168C140.204 50.168 139.468 50.032 138.732 49.76C138.012 49.472 137.364 49.032 136.788 48.44ZM158.314 44.936H149.602C149.65 45.768 149.922 46.416 150.418 46.88C150.914 47.328 151.53 47.6 152.266 47.696C153.018 47.792 153.794 47.728 154.594 47.504C155.41 47.264 156.146 46.864 156.802 46.304L158.194 48.248C157.362 48.952 156.498 49.456 155.602 49.76C154.722 50.064 153.842 50.216 152.962 50.216C150.946 50.232 149.418 49.672 148.378 48.536C147.354 47.384 146.842 45.768 146.842 43.688C146.842 41.912 147.354 40.496 148.378 39.44C149.418 38.384 150.85 37.856 152.674 37.856C155.266 37.872 156.986 38.888 157.834 40.904C158.074 41.464 158.226 42.072 158.29 42.728C158.354 43.384 158.362 44.12 158.314 44.936ZM152.89 40.256C151.866 40.256 151.058 40.528 150.466 41.072C149.89 41.6 149.602 42.264 149.602 43.064H156.082C156.082 42.28 155.802 41.616 155.242 41.072C154.698 40.528 153.914 40.256 152.89 40.256ZM160.343 48.44L161.831 46.832C162.759 47.584 163.679 47.96 164.591 47.96C164.847 47.96 165.095 47.928 165.335 47.864C165.575 47.8 165.783 47.688 165.959 47.528C166.183 47.352 166.327 47.12 166.391 46.832C166.455 46.544 166.455 46.296 166.391 46.088C166.311 45.768 166.103 45.52 165.767 45.344C165.431 45.168 165.023 45.008 164.543 44.864C164.079 44.72 163.599 44.552 163.103 44.36C162.623 44.168 162.183 43.912 161.783 43.592C161.127 43.032 160.735 42.432 160.607 41.792C160.479 41.136 160.567 40.52 160.871 39.944C161.175 39.352 161.639 38.872 162.263 38.504C162.903 38.12 163.671 37.912 164.567 37.88C165.399 37.864 166.167 38 166.871 38.288C167.575 38.56 168.135 38.92 168.551 39.368L166.919 40.856C166.631 40.6 166.279 40.416 165.863 40.304C165.447 40.176 165.055 40.112 164.687 40.112C164.271 40.112 163.911 40.2 163.607 40.376C163.303 40.552 163.143 40.848 163.127 41.264C163.127 41.664 163.311 41.976 163.679 42.2C164.047 42.424 164.511 42.624 165.071 42.8C165.647 42.96 166.223 43.176 166.799 43.448C167.391 43.72 167.871 44.12 168.239 44.648C168.607 45.16 168.767 45.824 168.719 46.64C168.687 47.408 168.471 48.056 168.071 48.584C167.687 49.112 167.175 49.512 166.535 49.784C165.911 50.04 165.231 50.168 164.495 50.168C163.759 50.168 163.023 50.032 162.287 49.76C161.567 49.472 160.919 49.032 160.343 48.44ZM183.277 49.856C182.493 49.6 181.837 49.176 181.309 48.584C180.797 47.992 180.413 47.288 180.157 46.472C179.901 45.64 179.773 44.752 179.773 43.808C179.773 42.688 179.973 41.68 180.373 40.784C180.789 39.888 181.389 39.176 182.173 38.648C182.957 38.104 183.925 37.832 185.077 37.832C185.461 37.832 185.901 37.872 186.397 37.952C186.909 38.032 187.357 38.192 187.741 38.432V33.2H190.309V50H187.741V48.992C187.469 49.296 187.069 49.544 186.541 49.736C186.029 49.912 185.477 50.016 184.885 50.048C184.309 50.08 183.773 50.016 183.277 49.856ZM187.741 46.856V40.856C186.813 40.472 185.933 40.336 185.101 40.448C184.285 40.56 183.621 40.904 183.109 41.48C182.597 42.04 182.34 42.816 182.34 43.808C182.34 44.96 182.597 45.864 183.109 46.52C183.637 47.176 184.309 47.544 185.125 47.624C185.957 47.688 186.829 47.432 187.741 46.856ZM203.924 44.936H195.212C195.26 45.768 195.532 46.416 196.028 46.88C196.524 47.328 197.14 47.6 197.876 47.696C198.628 47.792 199.404 47.728 200.204 47.504C201.02 47.264 201.756 46.864 202.412 46.304L203.804 48.248C202.972 48.952 202.108 49.456 201.212 49.76C200.332 50.064 199.452 50.216 198.572 50.216C196.556 50.232 195.028 49.672 193.988 48.536C192.964 47.384 192.452 45.768 192.452 43.688C192.452 41.912 192.964 40.496 193.988 39.44C195.028 38.384 196.46 37.856 198.284 37.856C200.876 37.872 202.596 38.888 203.444 40.904C203.684 41.464 203.836 42.072 203.9 42.728C203.964 43.384 203.972 44.12 203.924 44.936ZM198.5 40.256C197.476 40.256 196.668 40.528 196.076 41.072C195.5 41.6 195.212 42.264 195.212 43.064H201.692C201.692 42.28 201.412 41.616 200.852 41.072C200.308 40.528 199.524 40.256 198.5 40.256ZM114.464 76.856C113.68 76.6 113.024 76.176 112.496 75.584C111.984 74.992 111.6 74.288 111.344 73.472C111.088 72.64 110.96 71.752 110.96 70.808C110.96 69.688 111.16 68.68 111.56 67.784C111.976 66.888 112.576 66.176 113.36 65.648C114.144 65.104 115.112 64.832 116.264 64.832C116.648 64.832 117.088 64.872 117.584 64.952C118.096 65.032 118.544 65.192 118.928 65.432V60.2H121.496V77H118.928V75.992C118.656 76.296 118.256 76.544 117.728 76.736C117.216 76.912 116.664 77.016 116.072 77.048C115.496 77.08 114.96 77.016 114.464 76.856ZM118.928 73.856V67.856C118 67.472 117.12 67.336 116.288 67.448C115.472 67.56 114.808 67.904 114.296 68.48C113.784 69.04 113.528 69.816 113.528 70.808C113.528 71.96 113.784 72.864 114.296 73.52C114.824 74.176 115.496 74.544 116.312 74.624C117.144 74.688 118.016 74.432 118.928 73.856ZM127.431 77.12C126.263 77.072 125.343 76.736 124.671 76.112C123.999 75.488 123.663 74.608 123.663 73.472C123.663 72.624 123.863 71.912 124.263 71.336C124.679 70.744 125.239 70.28 125.943 69.944C126.647 69.608 127.439 69.408 128.319 69.344C129.215 69.264 130.135 69.32 131.079 69.512V68.744C131.079 68.28 130.927 67.92 130.623 67.664C130.335 67.408 129.951 67.24 129.471 67.16C129.007 67.08 128.503 67.08 127.959 67.16C127.431 67.24 126.927 67.4 126.447 67.64C125.983 67.864 125.607 68.152 125.319 68.504L123.855 66.92C124.415 66.328 125.087 65.864 125.871 65.528C126.671 65.192 127.495 64.992 128.343 64.928C129.207 64.864 130.015 64.944 130.767 65.168C131.535 65.376 132.183 65.736 132.711 66.248C133.239 66.712 133.535 67.336 133.599 68.12C133.663 68.904 133.695 69.784 133.695 70.76V77H131.103V75.896C130.575 76.344 129.991 76.664 129.351 76.856C128.711 77.048 128.071 77.136 127.431 77.12ZM131.031 73.808V71.384C129.287 71.224 128.007 71.32 127.191 71.672C126.391 72.008 125.991 72.6 125.991 73.448C125.991 73.976 126.167 74.36 126.519 74.6C126.887 74.824 127.335 74.936 127.863 74.936C128.407 74.92 128.959 74.816 129.519 74.624C130.095 74.416 130.599 74.144 131.031 73.808ZM137.629 71.648V67.376H135.757V65H137.629V60.2H140.149V65H142.093V67.376H140.149V71.648C140.149 72.368 140.189 72.928 140.269 73.328C140.365 73.728 140.493 74.008 140.653 74.168C140.829 74.328 141.029 74.424 141.253 74.456C141.493 74.488 141.749 74.512 142.021 74.528H142.501V77.048H142.093C141.245 77.048 140.533 76.984 139.957 76.856C139.397 76.728 138.941 76.48 138.589 76.112C138.253 75.728 138.005 75.184 137.845 74.48C137.701 73.76 137.629 72.816 137.629 71.648ZM150.213 77.312C149.061 77.312 148.045 77.064 147.165 76.568C146.301 76.056 145.621 75.352 145.125 74.456C144.645 73.544 144.405 72.488 144.405 71.288C144.405 69.88 144.653 68.704 145.149 67.76C145.645 66.8 146.325 66.08 147.189 65.6C148.069 65.12 149.077 64.88 150.213 64.88C151.349 64.88 152.349 65.12 153.213 65.6C154.093 66.08 154.781 66.8 155.277 67.76C155.773 68.704 156.021 69.88 156.021 71.288C156.021 72.488 155.773 73.544 155.277 74.456C154.781 75.352 154.093 76.056 153.213 76.568C152.349 77.064 151.349 77.312 150.213 77.312ZM150.213 74.864C150.933 74.864 151.541 74.696 152.037 74.36C152.533 74.024 152.909 73.584 153.165 73.04C153.437 72.496 153.573 71.912 153.573 71.288C153.573 70.168 153.285 69.232 152.709 68.48C152.133 67.712 151.301 67.328 150.213 67.328C149.141 67.328 148.309 67.704 147.717 68.456C147.141 69.208 146.853 70.152 146.853 71.288C146.853 71.928 146.981 72.52 147.237 73.064C147.509 73.608 147.893 74.048 148.389 74.384C148.885 74.704 149.493 74.864 150.213 74.864ZM157.483 75.44L158.971 73.832C159.899 74.584 160.819 74.96 161.731 74.96C161.987 74.96 162.235 74.928 162.475 74.864C162.715 74.8 162.923 74.688 163.099 74.528C163.323 74.352 163.467 74.12 163.531 73.832C163.595 73.544 163.595 73.296 163.531 73.088C163.451 72.768 163.243 72.52 162.907 72.344C162.571 72.168 162.163 72.008 161.683 71.864C161.219 71.72 160.739 71.552 160.243 71.36C159.763 71.168 159.323 70.912 158.923 70.592C158.267 70.032 157.875 69.432 157.747 68.792C157.619 68.136 157.707 67.52 158.011 66.944C158.315 66.352 158.779 65.872 159.403 65.504C160.043 65.12 160.811 64.912 161.707 64.88C162.539 64.864 163.307 65 164.011 65.288C164.715 65.56 165.275 65.92 165.691 66.368L164.059 67.856C163.771 67.6 163.419 67.416 163.003 67.304C162.587 67.176 162.195 67.112 161.827 67.112C161.411 67.112 161.051 67.2 160.747 67.376C160.443 67.552 160.283 67.848 160.267 68.264C160.267 68.664 160.451 68.976 160.819 69.2C161.187 69.424 161.651 69.624 162.211 69.8C162.787 69.96 163.363 70.176 163.939 70.448C164.531 70.72 165.011 71.12 165.379 71.648C165.747 72.16 165.907 72.824 165.859 73.64C165.827 74.408 165.611 75.056 165.211 75.584C164.827 76.112 164.315 76.512 163.675 76.784C163.051 77.04 162.371 77.168 161.635 77.168C160.899 77.168 160.163 77.032 159.427 76.76C158.707 76.472 158.059 76.032 157.483 75.44Z" fill="#4F5053"/>
<path d="M54.2463 95.1725C42.7338 95.1725 33.0023 93.3659 25.0517 89.7529C17.101 86.1398 13.1257 81.7222 13.1257 76.4999V31.4999C13.1257 26.358 17.1385 21.956 25.164 18.2938C33.1895 14.6315 42.8775 12.8004 54.2281 12.8004C65.5608 12.8004 75.2508 14.6315 83.2982 18.2938C91.3456 21.956 95.3693 26.358 95.3693 31.4999V76.4999C95.3693 81.7222 91.3891 86.1398 83.4286 89.7529C75.4683 93.3659 65.7408 95.1725 54.2463 95.1725ZM54.2339 39.5731C60.6619 39.5731 67.2494 38.5838 73.9965 36.6052C80.7436 34.6267 85.1175 32.3999 87.1183 29.9249C85.0427 27.5249 80.6209 25.3169 73.8531 23.3009C67.0851 21.2849 60.541 20.2768 54.2208 20.2768C47.6757 20.2768 41.0754 21.2518 34.4198 23.2018C27.7641 25.1518 23.3789 27.3929 21.2643 29.9249C23.3789 32.5499 27.7206 34.8142 34.2894 36.7177C40.858 38.6213 47.5062 39.5731 54.2339 39.5731ZM54.1217 63.6212C57.2489 63.6212 60.3728 63.4479 63.4934 63.1014C66.614 62.755 69.6083 62.2398 72.4763 61.5558C75.3443 60.8718 78.0951 60.0333 80.7286 59.0404C83.3621 58.0475 85.754 56.942 87.9045 55.7241V39.1745C85.6971 40.3745 83.2785 41.462 80.6486 42.437C78.0187 43.412 75.2525 44.2325 72.3501 44.8985C69.4475 45.5645 66.4701 46.0805 63.4178 46.4466C60.3655 46.8126 57.2636 46.9956 54.1122 46.9956C50.9964 46.9956 47.8764 46.8126 44.7522 46.4466C41.6278 46.0805 38.6259 45.56 35.7464 44.885C32.867 44.21 30.1311 43.3895 27.5387 42.4235C24.9462 41.4575 22.6301 40.3745 20.5904 39.1745V55.7241C22.6122 56.942 24.9051 58.043 27.469 59.027C30.033 60.0109 32.7565 60.8494 35.6395 61.5423C38.5225 62.2353 41.529 62.755 44.6589 63.1014C47.7889 63.4479 50.9431 63.6212 54.1217 63.6212ZM54.234 87.6962C57.7926 87.7141 61.4635 87.4088 65.2467 86.7802C69.0299 86.1517 72.5128 85.3169 75.6953 84.2759C78.8778 83.2349 81.5826 82.0724 83.8095 80.7884C86.0365 79.5044 87.4015 78.1874 87.9045 76.8374V63.3668C85.772 64.5847 83.3998 65.6714 80.7878 66.6268C78.1758 67.5823 75.4267 68.3975 72.5403 69.0725C69.654 69.7475 66.6642 70.2537 63.5708 70.5912C60.4774 70.9287 57.3277 71.0975 54.1217 71.0975C50.9252 71.0975 47.762 70.9243 44.6321 70.5778C41.502 70.2313 38.5 69.7206 35.626 69.0456C32.752 68.3706 30.0375 67.5554 27.4825 66.5999C24.9275 65.6445 22.6301 64.5668 20.5904 63.3668V76.9485C21.0185 78.2244 22.3274 79.5142 24.5169 80.8177C26.7064 82.1213 29.4066 83.2793 32.6176 84.2918C35.8287 85.3043 39.3258 86.1248 43.1091 86.7533C46.8922 87.3819 50.6006 87.6962 54.234 87.6962Z" fill="#4F5053"/>
</svg>
