<svg width="64" height="44" viewBox="0 0 64 44" fill="none" xmlns="http://www.w3.org/2000/svg">
<path d="M5.6 19.5358L0 13.7576C4.08889 9.44688 8.86667 6.07627 14.3333 3.64576C19.8 1.21525 25.6889 0 32 0C33.0667 0 34.1333 0.034394 35.2 0.103182C36.2667 0.17197 37.3333 0.275152 38.4 0.412728L34.4 8.39213C33.8667 8.30041 33.4333 8.25455 33.1 8.25455H32C26.8444 8.25455 22.0111 9.25198 17.5 11.2468C12.9889 13.2417 9.02222 16.0047 5.6 19.5358ZM16.9333 31.2297L11.3333 25.314C13.8222 22.7459 16.6778 20.7166 19.9 19.2262C23.1222 17.7358 26.6222 16.876 30.4 16.6467L26.1333 25.5891C24.4 26.1394 22.7556 26.8846 21.2 27.8247C19.6444 28.7648 18.2222 29.8998 16.9333 31.2297ZM30.1333 43.6116C28.8 43.1071 27.7667 42.1555 27.0333 40.7569C26.3 39.3582 26.2667 37.9709 26.9333 36.5952L42.9333 3.02667C43.1111 2.6598 43.3667 2.41904 43.7 2.3044C44.0333 2.18975 44.4 2.20121 44.8 2.33879C45.1556 2.47637 45.4222 2.70566 45.6 3.02667C45.7778 3.34768 45.8222 3.71455 45.7333 4.12728L37.0667 40.3097C36.7111 41.8231 35.8222 42.8893 34.4 43.5084C32.9778 44.1275 31.5556 44.1619 30.1333 43.6116ZM47.0667 31.2297C46.8 30.9546 46.5111 30.6794 46.2 30.4043C45.8889 30.1291 45.5556 29.854 45.2 29.5788L47.3333 20.9115C48.2667 21.5994 49.1889 22.2988 50.1 23.0096C51.0111 23.7204 51.8667 24.4885 52.6667 25.314L47.0667 31.2297ZM58.4 19.5358C57.0667 18.16 55.6333 16.8989 54.1 15.7524C52.5667 14.606 50.9333 13.5742 49.2 12.657L51.0667 4.40243C53.4667 5.59475 55.7556 6.97051 57.9333 8.5297C60.1111 10.0889 62.1333 11.8315 64 13.7576L58.4 19.5358Z" fill="#0045D0"/>
</svg>
