<svg width="206" height="104" viewBox="0 0 206 104" fill="none" xmlns="http://www.w3.org/2000/svg">
<path d="M112.2 50V33.2H118.56C119.424 33.2 120.176 33.416 120.816 33.848C121.472 34.28 121.976 34.848 122.328 35.552C122.696 36.256 122.88 37.024 122.88 37.856C122.88 39.024 122.512 40.096 121.776 41.072C122.384 41.552 122.848 42.128 123.168 42.8C123.504 43.472 123.672 44.192 123.672 44.96C123.672 45.584 123.552 46.192 123.312 46.784C123.088 47.376 122.776 47.92 122.376 48.416C121.976 48.896 121.504 49.28 120.96 49.568C120.432 49.856 119.872 50 119.28 50H112.2ZM114.816 40.328H118.488C118.808 40.328 119.104 40.208 119.376 39.968C119.648 39.728 119.864 39.416 120.024 39.032C120.184 38.648 120.264 38.256 120.264 37.856C120.264 37.328 120.112 36.864 119.808 36.464C119.504 36.048 119.088 35.84 118.56 35.84H114.816V40.328ZM114.816 47.36H119.28C119.6 47.36 119.888 47.24 120.144 47C120.416 46.76 120.632 46.456 120.792 46.088C120.968 45.72 121.056 45.344 121.056 44.96C121.056 44.384 120.896 43.896 120.576 43.496C120.256 43.08 119.848 42.872 119.352 42.872H114.816V47.36ZM129.369 50.12C128.201 50.072 127.281 49.736 126.609 49.112C125.937 48.488 125.601 47.608 125.601 46.472C125.601 45.624 125.801 44.912 126.201 44.336C126.617 43.744 127.177 43.28 127.881 42.944C128.585 42.608 129.377 42.408 130.257 42.344C131.153 42.264 132.073 42.32 133.017 42.512V41.744C133.017 41.28 132.865 40.92 132.561 40.664C132.273 40.408 131.889 40.24 131.409 40.16C130.945 40.08 130.441 40.08 129.897 40.16C129.369 40.24 128.865 40.4 128.385 40.64C127.921 40.864 127.545 41.152 127.257 41.504L125.793 39.92C126.353 39.328 127.025 38.864 127.809 38.528C128.609 38.192 129.433 37.992 130.281 37.928C131.145 37.864 131.953 37.944 132.705 38.168C133.473 38.376 134.121 38.736 134.649 39.248C135.177 39.712 135.473 40.336 135.537 41.12C135.601 41.904 135.633 42.784 135.633 43.76V50H133.041V48.896C132.513 49.344 131.929 49.664 131.289 49.856C130.649 50.048 130.009 50.136 129.369 50.12ZM132.969 46.808V44.384C131.225 44.224 129.945 44.32 129.129 44.672C128.329 45.008 127.929 45.6 127.929 46.448C127.929 46.976 128.105 47.36 128.457 47.6C128.825 47.824 129.273 47.936 129.801 47.936C130.345 47.92 130.897 47.816 131.457 47.624C132.033 47.416 132.537 47.144 132.969 46.808ZM137.788 48.44L139.276 46.832C140.204 47.584 141.124 47.96 142.036 47.96C142.292 47.96 142.54 47.928 142.78 47.864C143.02 47.8 143.228 47.688 143.404 47.528C143.628 47.352 143.772 47.12 143.836 46.832C143.9 46.544 143.9 46.296 143.836 46.088C143.756 45.768 143.548 45.52 143.212 45.344C142.876 45.168 142.468 45.008 141.988 44.864C141.524 44.72 141.044 44.552 140.548 44.36C140.068 44.168 139.628 43.912 139.228 43.592C138.572 43.032 138.18 42.432 138.052 41.792C137.924 41.136 138.012 40.52 138.316 39.944C138.62 39.352 139.084 38.872 139.708 38.504C140.348 38.12 141.116 37.912 142.012 37.88C142.844 37.864 143.612 38 144.316 38.288C145.02 38.56 145.58 38.92 145.996 39.368L144.364 40.856C144.076 40.6 143.724 40.416 143.308 40.304C142.892 40.176 142.5 40.112 142.132 40.112C141.716 40.112 141.356 40.2 141.052 40.376C140.748 40.552 140.588 40.848 140.572 41.264C140.572 41.664 140.756 41.976 141.124 42.2C141.492 42.424 141.956 42.624 142.516 42.8C143.092 42.96 143.668 43.176 144.244 43.448C144.836 43.72 145.316 44.12 145.684 44.648C146.052 45.16 146.212 45.824 146.164 46.64C146.132 47.408 145.916 48.056 145.516 48.584C145.132 49.112 144.62 49.512 143.98 49.784C143.356 50.04 142.676 50.168 141.94 50.168C141.204 50.168 140.468 50.032 139.732 49.76C139.012 49.472 138.364 49.032 137.788 48.44ZM159.314 44.936H150.602C150.65 45.768 150.922 46.416 151.418 46.88C151.914 47.328 152.53 47.6 153.266 47.696C154.018 47.792 154.794 47.728 155.594 47.504C156.41 47.264 157.146 46.864 157.802 46.304L159.194 48.248C158.362 48.952 157.498 49.456 156.602 49.76C155.722 50.064 154.842 50.216 153.962 50.216C151.946 50.232 150.418 49.672 149.378 48.536C148.354 47.384 147.842 45.768 147.842 43.688C147.842 41.912 148.354 40.496 149.378 39.44C150.418 38.384 151.85 37.856 153.674 37.856C156.266 37.872 157.986 38.888 158.834 40.904C159.074 41.464 159.226 42.072 159.29 42.728C159.354 43.384 159.362 44.12 159.314 44.936ZM153.89 40.256C152.866 40.256 152.058 40.528 151.466 41.072C150.89 41.6 150.602 42.264 150.602 43.064H157.082C157.082 42.28 156.802 41.616 156.242 41.072C155.698 40.528 154.914 40.256 153.89 40.256ZM161.343 48.44L162.831 46.832C163.759 47.584 164.679 47.96 165.591 47.96C165.847 47.96 166.095 47.928 166.335 47.864C166.575 47.8 166.783 47.688 166.959 47.528C167.183 47.352 167.327 47.12 167.391 46.832C167.455 46.544 167.455 46.296 167.391 46.088C167.311 45.768 167.103 45.52 166.767 45.344C166.431 45.168 166.023 45.008 165.543 44.864C165.079 44.72 164.599 44.552 164.103 44.36C163.623 44.168 163.183 43.912 162.783 43.592C162.127 43.032 161.735 42.432 161.607 41.792C161.479 41.136 161.567 40.52 161.871 39.944C162.175 39.352 162.639 38.872 163.263 38.504C163.903 38.12 164.671 37.912 165.567 37.88C166.399 37.864 167.167 38 167.871 38.288C168.575 38.56 169.135 38.92 169.551 39.368L167.919 40.856C167.631 40.6 167.279 40.416 166.863 40.304C166.447 40.176 166.055 40.112 165.687 40.112C165.271 40.112 164.911 40.2 164.607 40.376C164.303 40.552 164.143 40.848 164.127 41.264C164.127 41.664 164.311 41.976 164.679 42.2C165.047 42.424 165.511 42.624 166.071 42.8C166.647 42.96 167.223 43.176 167.799 43.448C168.391 43.72 168.871 44.12 169.239 44.648C169.607 45.16 169.767 45.824 169.719 46.64C169.687 47.408 169.471 48.056 169.071 48.584C168.687 49.112 168.175 49.512 167.535 49.784C166.911 50.04 166.231 50.168 165.495 50.168C164.759 50.168 164.023 50.032 163.287 49.76C162.567 49.472 161.919 49.032 161.343 48.44ZM184.277 49.856C183.493 49.6 182.837 49.176 182.309 48.584C181.797 47.992 181.413 47.288 181.157 46.472C180.901 45.64 180.773 44.752 180.773 43.808C180.773 42.688 180.973 41.68 181.373 40.784C181.789 39.888 182.389 39.176 183.173 38.648C183.957 38.104 184.925 37.832 186.077 37.832C186.461 37.832 186.901 37.872 187.397 37.952C187.909 38.032 188.357 38.192 188.741 38.432V33.2H191.309V50H188.741V48.992C188.469 49.296 188.069 49.544 187.541 49.736C187.029 49.912 186.477 50.016 185.885 50.048C185.309 50.08 184.773 50.016 184.277 49.856ZM188.741 46.856V40.856C187.813 40.472 186.933 40.336 186.101 40.448C185.285 40.56 184.621 40.904 184.109 41.48C183.597 42.04 183.34 42.816 183.34 43.808C183.34 44.96 183.597 45.864 184.109 46.52C184.637 47.176 185.309 47.544 186.125 47.624C186.957 47.688 187.829 47.432 188.741 46.856ZM204.924 44.936H196.212C196.26 45.768 196.532 46.416 197.028 46.88C197.524 47.328 198.14 47.6 198.876 47.696C199.628 47.792 200.404 47.728 201.204 47.504C202.02 47.264 202.756 46.864 203.412 46.304L204.804 48.248C203.972 48.952 203.108 49.456 202.212 49.76C201.332 50.064 200.452 50.216 199.572 50.216C197.556 50.232 196.028 49.672 194.988 48.536C193.964 47.384 193.452 45.768 193.452 43.688C193.452 41.912 193.964 40.496 194.988 39.44C196.028 38.384 197.46 37.856 199.284 37.856C201.876 37.872 203.596 38.888 204.444 40.904C204.684 41.464 204.836 42.072 204.9 42.728C204.964 43.384 204.972 44.12 204.924 44.936ZM199.5 40.256C198.476 40.256 197.668 40.528 197.076 41.072C196.5 41.6 196.212 42.264 196.212 43.064H202.692C202.692 42.28 202.412 41.616 201.852 41.072C201.308 40.528 200.524 40.256 199.5 40.256ZM115.464 76.856C114.68 76.6 114.024 76.176 113.496 75.584C112.984 74.992 112.6 74.288 112.344 73.472C112.088 72.64 111.96 71.752 111.96 70.808C111.96 69.688 112.16 68.68 112.56 67.784C112.976 66.888 113.576 66.176 114.36 65.648C115.144 65.104 116.112 64.832 117.264 64.832C117.648 64.832 118.088 64.872 118.584 64.952C119.096 65.032 119.544 65.192 119.928 65.432V60.2H122.496V77H119.928V75.992C119.656 76.296 119.256 76.544 118.728 76.736C118.216 76.912 117.664 77.016 117.072 77.048C116.496 77.08 115.96 77.016 115.464 76.856ZM119.928 73.856V67.856C119 67.472 118.12 67.336 117.288 67.448C116.472 67.56 115.808 67.904 115.296 68.48C114.784 69.04 114.528 69.816 114.528 70.808C114.528 71.96 114.784 72.864 115.296 73.52C115.824 74.176 116.496 74.544 117.312 74.624C118.144 74.688 119.016 74.432 119.928 73.856ZM128.431 77.12C127.263 77.072 126.343 76.736 125.671 76.112C124.999 75.488 124.663 74.608 124.663 73.472C124.663 72.624 124.863 71.912 125.263 71.336C125.679 70.744 126.239 70.28 126.943 69.944C127.647 69.608 128.439 69.408 129.319 69.344C130.215 69.264 131.135 69.32 132.079 69.512V68.744C132.079 68.28 131.927 67.92 131.623 67.664C131.335 67.408 130.951 67.24 130.471 67.16C130.007 67.08 129.503 67.08 128.959 67.16C128.431 67.24 127.927 67.4 127.447 67.64C126.983 67.864 126.607 68.152 126.319 68.504L124.855 66.92C125.415 66.328 126.087 65.864 126.871 65.528C127.671 65.192 128.495 64.992 129.343 64.928C130.207 64.864 131.015 64.944 131.767 65.168C132.535 65.376 133.183 65.736 133.711 66.248C134.239 66.712 134.535 67.336 134.599 68.12C134.663 68.904 134.695 69.784 134.695 70.76V77H132.103V75.896C131.575 76.344 130.991 76.664 130.351 76.856C129.711 77.048 129.071 77.136 128.431 77.12ZM132.031 73.808V71.384C130.287 71.224 129.007 71.32 128.191 71.672C127.391 72.008 126.991 72.6 126.991 73.448C126.991 73.976 127.167 74.36 127.519 74.6C127.887 74.824 128.335 74.936 128.863 74.936C129.407 74.92 129.959 74.816 130.519 74.624C131.095 74.416 131.599 74.144 132.031 73.808ZM138.629 71.648V67.376H136.757V65H138.629V60.2H141.149V65H143.093V67.376H141.149V71.648C141.149 72.368 141.189 72.928 141.269 73.328C141.365 73.728 141.493 74.008 141.653 74.168C141.829 74.328 142.029 74.424 142.253 74.456C142.493 74.488 142.749 74.512 143.021 74.528H143.501V77.048H143.093C142.245 77.048 141.533 76.984 140.957 76.856C140.397 76.728 139.941 76.48 139.589 76.112C139.253 75.728 139.005 75.184 138.845 74.48C138.701 73.76 138.629 72.816 138.629 71.648ZM151.213 77.312C150.061 77.312 149.045 77.064 148.165 76.568C147.301 76.056 146.621 75.352 146.125 74.456C145.645 73.544 145.405 72.488 145.405 71.288C145.405 69.88 145.653 68.704 146.149 67.76C146.645 66.8 147.325 66.08 148.189 65.6C149.069 65.12 150.077 64.88 151.213 64.88C152.349 64.88 153.349 65.12 154.213 65.6C155.093 66.08 155.781 66.8 156.277 67.76C156.773 68.704 157.021 69.88 157.021 71.288C157.021 72.488 156.773 73.544 156.277 74.456C155.781 75.352 155.093 76.056 154.213 76.568C153.349 77.064 152.349 77.312 151.213 77.312ZM151.213 74.864C151.933 74.864 152.541 74.696 153.037 74.36C153.533 74.024 153.909 73.584 154.165 73.04C154.437 72.496 154.573 71.912 154.573 71.288C154.573 70.168 154.285 69.232 153.709 68.48C153.133 67.712 152.301 67.328 151.213 67.328C150.141 67.328 149.309 67.704 148.717 68.456C148.141 69.208 147.853 70.152 147.853 71.288C147.853 71.928 147.981 72.52 148.237 73.064C148.509 73.608 148.893 74.048 149.389 74.384C149.885 74.704 150.493 74.864 151.213 74.864ZM158.483 75.44L159.971 73.832C160.899 74.584 161.819 74.96 162.731 74.96C162.987 74.96 163.235 74.928 163.475 74.864C163.715 74.8 163.923 74.688 164.099 74.528C164.323 74.352 164.467 74.12 164.531 73.832C164.595 73.544 164.595 73.296 164.531 73.088C164.451 72.768 164.243 72.52 163.907 72.344C163.571 72.168 163.163 72.008 162.683 71.864C162.219 71.72 161.739 71.552 161.243 71.36C160.763 71.168 160.323 70.912 159.923 70.592C159.267 70.032 158.875 69.432 158.747 68.792C158.619 68.136 158.707 67.52 159.011 66.944C159.315 66.352 159.779 65.872 160.403 65.504C161.043 65.12 161.811 64.912 162.707 64.88C163.539 64.864 164.307 65 165.011 65.288C165.715 65.56 166.275 65.92 166.691 66.368L165.059 67.856C164.771 67.6 164.419 67.416 164.003 67.304C163.587 67.176 163.195 67.112 162.827 67.112C162.411 67.112 162.051 67.2 161.747 67.376C161.443 67.552 161.283 67.848 161.267 68.264C161.267 68.664 161.451 68.976 161.819 69.2C162.187 69.424 162.651 69.624 163.211 69.8C163.787 69.96 164.363 70.176 164.939 70.448C165.531 70.72 166.011 71.12 166.379 71.648C166.747 72.16 166.907 72.824 166.859 73.64C166.827 74.408 166.611 75.056 166.211 75.584C165.827 76.112 165.315 76.512 164.675 76.784C164.051 77.04 163.371 77.168 162.635 77.168C161.899 77.168 161.163 77.032 160.427 76.76C159.707 76.472 159.059 76.032 158.483 75.44Z" fill="#4F5053"/>
<path d="M54.68 95.1725C43.1675 95.1725 33.436 93.3659 25.4854 89.7529C17.5348 86.1398 13.5594 81.7222 13.5594 76.4999V31.4999C13.5594 26.358 17.5722 21.956 25.5977 18.2938C33.6232 14.6315 43.3112 12.8004 54.6618 12.8004C65.9945 12.8004 75.6846 14.6315 83.7319 18.2938C91.7793 21.956 95.803 26.358 95.803 31.4999V76.4999C95.803 81.7222 91.8228 86.1398 83.8623 89.7529C75.902 93.3659 66.1745 95.1725 54.68 95.1725ZM54.6676 39.5731C61.0956 39.5731 67.6831 38.5838 74.4302 36.6052C81.1773 34.6267 85.5513 32.3999 87.552 29.9249C85.4764 27.5249 81.0546 25.3169 74.2868 23.3009C67.5189 21.2849 60.9748 20.2768 54.6545 20.2768C48.1094 20.2768 41.5091 21.2518 34.8535 23.2018C28.1978 25.1518 23.8127 27.3929 21.698 29.9249C23.8127 32.5499 28.1543 34.8142 34.7231 36.7177C41.2917 38.6213 47.9399 39.5731 54.6676 39.5731ZM54.5554 63.6212C57.6826 63.6212 60.8065 63.4479 63.9271 63.1014C67.0477 62.755 70.042 62.2398 72.91 61.5558C75.778 60.8718 78.5288 60.0333 81.1623 59.0404C83.7958 58.0475 86.1878 56.942 88.3382 55.7241V39.1745C86.1309 40.3745 83.7122 41.462 81.0823 42.437C78.4524 43.412 75.6862 44.2325 72.7838 44.8985C69.8812 45.5645 66.9038 46.0805 63.8515 46.4466C60.7992 46.8126 57.6973 46.9956 54.5459 46.9956C51.4301 46.9956 48.3101 46.8126 45.1859 46.4466C42.0615 46.0805 39.0596 45.56 36.1801 44.885C33.3007 44.21 30.5648 43.3895 27.9724 42.4235C25.3799 41.4575 23.0638 40.3745 21.0241 39.1745V55.7241C23.0459 56.942 25.3388 58.043 27.9027 59.027C30.4667 60.0109 33.1902 60.8494 36.0732 61.5423C38.9562 62.2353 41.9627 62.755 45.0926 63.1014C48.2226 63.4479 51.3769 63.6212 54.5554 63.6212ZM54.6677 87.6962C58.2263 87.7141 61.8972 87.4088 65.6804 86.7802C69.4636 86.1517 72.9465 85.3169 76.129 84.2759C79.3115 83.2349 82.0163 82.0724 84.2432 80.7884C86.4702 79.5044 87.8352 78.1874 88.3382 76.8374V63.3668C86.2057 64.5847 83.8335 65.6714 81.2215 66.6268C78.6096 67.5823 75.8604 68.3975 72.974 69.0725C70.0878 69.7475 67.0979 70.2537 64.0045 70.5912C60.9111 70.9287 57.7614 71.0975 54.5554 71.0975C51.359 71.0975 48.1958 70.9243 45.0658 70.5778C41.9358 70.2313 38.9337 69.7206 36.0597 69.0456C33.1857 68.3706 30.4712 67.5554 27.9162 66.5999C25.3612 65.6445 23.0638 64.5668 21.0241 63.3668V76.9485C21.4523 78.2244 22.7611 79.5142 24.9506 80.8177C27.1401 82.1213 29.8404 83.2793 33.0513 84.2918C36.2624 85.3043 39.7596 86.1248 43.5428 86.7533C47.326 87.3819 51.0343 87.6962 54.6677 87.6962Z" fill="#4F5053"/>
</svg>
