<svg width="154" height="52" viewBox="0 0 154 52" fill="none" xmlns="http://www.w3.org/2000/svg">
<g clip-path="url(#clip0_17_2)">
<path d="M71 24H64V14C64 11.8182 62.1573 10 60 10H45C42.8293 10 41 11.8182 41 14V24H31V4.05387C31 1.81818 29.2377 0 27 0H17.915C15.6907 0 14 1.81818 14 4.05387V24H2C0.807452 24 0 24.7946 0 25.9933C0 27.1919 0.807452 28 2 28H14V48C14 50.2357 15.7757 52 18 52H27C29.2377 52 31 50.1818 31 47.9461V28H41V38C41 40.1684 42.8293 42 45 42H60C62.1573 42 64 40.1684 64 38V28H71C72.1926 28 73 27.1919 73 25.9933C73 24.7946 72.1926 24 71 24ZM44 16C44 14.3704 44.3787 13 46 13H51C51.737 13 52 13.7593 52 14.5C52 15.2407 51.737 16 51 16H47C47 15.8653 47 16.404 47 16V21C47 21.7407 46.237 22 45.5 22C44.763 22 44 21.7407 44 21V16ZM17 6.20875C17 4.56566 17.3787 3 19 3H22C22.7504 3 23 3.75926 23 4.5C23 5.24074 22.7504 6 22 6H20C19.8526 6 20 5.85185 20 6V11C20 11.7407 19.237 12 18.5 12C17.763 12 17 11.7407 17 11V6.20875Z" fill="#0045D0"/>
</g>
<path d="M78.12 21.9L80.6 8.16C80.6133 8.10667 80.6467 8.08 80.7 8.08H83.6C83.6533 8.08 83.6867 8.10667 83.7 8.16L86.08 21.9C86.0933 21.9667 86.0667 22 86 22H83.78C83.7267 22 83.6933 21.9667 83.68 21.9L83.46 20.44H80.74L80.52 21.9C80.5067 21.9667 80.4733 22 80.42 22H78.2C78.1467 22 78.12 21.9667 78.12 21.9ZM81.14 18.3H83.06L82.24 12.68L82.12 11.94L82.04 12.68L81.14 18.3ZM87.4152 22C87.3618 22 87.3352 21.9667 87.3352 21.9L87.3552 8.18C87.3552 8.11333 87.3885 8.08 87.4552 8.08H89.6752C89.7418 8.08 89.7752 8.11333 89.7752 8.18L89.7552 19.54H93.8752C93.9418 19.54 93.9752 19.5733 93.9752 19.64V21.9C93.9752 21.9667 93.9418 22 93.8752 22H87.4152ZM95.3844 22C95.3177 22 95.2844 21.9667 95.2844 21.9L95.3044 8.16C95.3044 8.10667 95.331 8.08 95.3844 8.08H97.6244C97.6777 8.08 97.7044 8.10667 97.7044 8.16L97.7244 21.9C97.7244 21.9667 97.6977 22 97.6444 22H95.3844ZM103.144 22.2C102.424 22.2 101.77 22.02 101.184 21.66C100.597 21.3 100.124 20.82 99.7636 20.22C99.4169 19.6067 99.2436 18.9267 99.2436 18.18V11.84C99.2436 11.12 99.4169 10.46 99.7636 9.86C100.124 9.24667 100.597 8.76 101.184 8.4C101.784 8.04 102.437 7.86 103.144 7.86C103.877 7.86 104.537 8.04 105.124 8.4C105.724 8.74667 106.197 9.22 106.544 9.82C106.89 10.42 107.064 11.0933 107.064 11.84V12.76C107.064 12.8133 107.03 12.84 106.964 12.84H104.724C104.67 12.84 104.644 12.8133 104.644 12.76V12C104.644 11.4933 104.497 11.0733 104.204 10.74C103.924 10.4067 103.57 10.24 103.144 10.24C102.757 10.24 102.41 10.4 102.104 10.72C101.81 11.04 101.664 11.4133 101.664 11.84V18.18C101.664 18.62 101.81 19 102.104 19.32C102.397 19.6267 102.744 19.78 103.144 19.78C103.57 19.78 103.924 19.6267 104.204 19.32C104.497 19.0133 104.644 18.6333 104.644 18.18V17.2H103.244C103.177 17.2 103.144 17.1667 103.144 17.1V14.86C103.144 14.7933 103.177 14.76 103.244 14.76H106.984C107.037 14.76 107.064 14.7933 107.064 14.86V18.18C107.064 18.9267 106.884 19.6067 106.524 20.22C106.177 20.82 105.71 21.3 105.124 21.66C104.537 22.02 103.877 22.2 103.144 22.2ZM108.668 22C108.561 22 108.508 21.9533 108.508 21.86L108.488 8.24C108.488 8.13333 108.541 8.08 108.648 8.08H110.448L113.828 15.96L113.728 8.24C113.728 8.13333 113.788 8.08 113.908 8.08H115.888C115.968 8.08 116.008 8.13333 116.008 8.24L116.028 21.88C116.028 21.96 115.994 22 115.928 22H114.168L110.708 14.64L110.848 21.84C110.848 21.9467 110.788 22 110.668 22H108.668ZM117.845 22C117.792 22 117.765 21.9667 117.765 21.9L117.805 8.16C117.805 8.10667 117.832 8.08 117.885 8.08H120.325C120.378 8.08 120.425 8.10667 120.465 8.16L122.285 10.8L124.105 8.16C124.145 8.10667 124.192 8.08 124.245 8.08H126.705C126.758 8.08 126.785 8.10667 126.785 8.16L126.825 21.9C126.825 21.9667 126.798 22 126.745 22H124.485C124.432 22 124.405 21.9667 124.405 21.9L124.385 11.7L122.285 14.74L120.205 11.7L120.185 21.9C120.185 21.9667 120.158 22 120.105 22H117.845ZM128.587 22C128.534 22 128.507 21.9667 128.507 21.9L128.527 8.16C128.527 8.10667 128.554 8.08 128.607 8.08H135.027C135.08 8.08 135.107 8.11333 135.107 8.18V10.42C135.107 10.4733 135.08 10.5 135.027 10.5H130.927V13.62H135.027C135.08 13.62 135.107 13.6467 135.107 13.7L135.127 15.96C135.127 16.0133 135.1 16.04 135.047 16.04H130.927V19.54H135.047C135.1 19.54 135.127 19.5733 135.127 19.64V21.92C135.127 21.9733 135.1 22 135.047 22H128.587ZM137.085 22C136.979 22 136.925 21.9533 136.925 21.86L136.905 8.24C136.905 8.13333 136.959 8.08 137.065 8.08H138.865L142.245 15.96L142.145 8.24C142.145 8.13333 142.205 8.08 142.325 8.08H144.305C144.385 8.08 144.425 8.13333 144.425 8.24L144.445 21.88C144.445 21.96 144.412 22 144.345 22H142.585L139.125 14.64L139.265 21.84C139.265 21.9467 139.205 22 139.085 22H137.085ZM148.183 22C148.129 22 148.103 21.9667 148.103 21.9V10.5H145.503C145.436 10.5 145.403 10.4667 145.403 10.4L145.423 8.16C145.423 8.10667 145.449 8.08 145.503 8.08H153.103C153.169 8.08 153.203 8.10667 153.203 8.16V10.4C153.203 10.4667 153.176 10.5 153.123 10.5H150.503L150.523 21.9C150.523 21.9667 150.496 22 150.443 22H148.183Z" fill="#0045D0"/>
<path d="M83.64 42C83.5867 42 83.5533 41.9667 83.54 41.9L81.18 28.16C81.1667 28.1067 81.1867 28.08 81.24 28.08H83.48C83.5333 28.08 83.5667 28.1067 83.58 28.16L84.86 37.2L86.18 28.16C86.1933 28.1067 86.2333 28.08 86.3 28.08H88.1C88.1533 28.08 88.1867 28.1067 88.2 28.16L89.5 37.2L90.8 28.16C90.8133 28.1067 90.8467 28.08 90.9 28.08H93.12C93.1867 28.08 93.2133 28.1067 93.2 28.16L90.82 41.9C90.8067 41.9267 90.7867 41.9533 90.76 41.98C90.7333 41.9933 90.72 42 90.72 42H88.3C88.26 42 88.2267 41.9667 88.2 41.9L87.18 34.72L86.16 41.9C86.1467 41.9667 86.1133 42 86.06 42H83.64ZM94.4581 42C94.4048 42 94.3781 41.9667 94.3781 41.9L94.3981 28.16C94.3981 28.1067 94.4248 28.08 94.4781 28.08H100.898C100.951 28.08 100.978 28.1133 100.978 28.18V30.42C100.978 30.4733 100.951 30.5 100.898 30.5H96.7981V33.62H100.898C100.951 33.62 100.978 33.6467 100.978 33.7L100.998 35.96C100.998 36.0133 100.971 36.04 100.918 36.04H96.7981V39.54H100.918C100.971 39.54 100.998 39.5733 100.998 39.64V41.92C100.998 41.9733 100.971 42 100.918 42H94.4581ZM102.857 42C102.803 42 102.777 41.9667 102.777 41.9L102.817 28.16C102.817 28.1067 102.843 28.08 102.897 28.08H106.737C107.497 28.08 108.177 28.2667 108.777 28.64C109.377 29 109.85 29.48 110.197 30.08C110.543 30.68 110.717 31.3333 110.717 32.04C110.717 32.6133 110.583 33.1467 110.317 33.64C110.063 34.1333 109.757 34.5333 109.397 34.84C109.783 35.2267 110.083 35.6733 110.297 36.18C110.51 36.6867 110.617 37.22 110.617 37.78C110.617 38.5533 110.43 39.26 110.057 39.9C109.683 40.54 109.177 41.0533 108.537 41.44C107.91 41.8133 107.21 42 106.437 42H102.857ZM105.217 33.6H106.737C107.203 33.6 107.577 33.44 107.857 33.12C108.15 32.7867 108.297 32.4267 108.297 32.04C108.297 31.6133 108.143 31.2467 107.837 30.94C107.53 30.62 107.163 30.46 106.737 30.46H105.217V33.6ZM105.197 39.56H106.437C106.917 39.56 107.33 39.3867 107.677 39.04C108.023 38.68 108.197 38.26 108.197 37.78C108.197 37.3 108.023 36.8867 107.677 36.54C107.33 36.1933 106.917 36.02 106.437 36.02H105.217L105.197 39.56ZM115.454 42.2C114.734 42.2 114.074 42.02 113.474 41.66C112.887 41.2867 112.414 40.8 112.054 40.2C111.707 39.5867 111.534 38.9133 111.534 38.18V37.26C111.534 37.1933 111.567 37.16 111.634 37.16H113.874C113.927 37.16 113.954 37.1933 113.954 37.26V38.18C113.954 38.62 114.101 39 114.394 39.32C114.687 39.6267 115.041 39.78 115.454 39.78C115.867 39.78 116.221 39.62 116.514 39.3C116.807 38.98 116.954 38.6067 116.954 38.18C116.954 37.6867 116.634 37.26 115.994 36.9C115.781 36.78 115.447 36.5933 114.994 36.34C114.541 36.0867 114.114 35.8467 113.714 35.62C112.981 35.1933 112.434 34.66 112.074 34.02C111.727 33.3667 111.554 32.6333 111.554 31.82C111.554 31.0733 111.734 30.4067 112.094 29.82C112.454 29.22 112.927 28.7467 113.514 28.4C114.114 28.0533 114.761 27.88 115.454 27.88C116.161 27.88 116.807 28.06 117.394 28.42C117.994 28.7667 118.467 29.24 118.814 29.84C119.174 30.4267 119.354 31.0867 119.354 31.82V33.46C119.354 33.5133 119.327 33.54 119.274 33.54H117.034C116.981 33.54 116.954 33.5133 116.954 33.46L116.934 31.82C116.934 31.3533 116.787 30.9733 116.494 30.68C116.201 30.3867 115.854 30.24 115.454 30.24C115.041 30.24 114.687 30.4 114.394 30.72C114.101 31.0267 113.954 31.3933 113.954 31.82C113.954 32.26 114.047 32.6267 114.234 32.92C114.421 33.2133 114.761 33.4933 115.254 33.76C115.321 33.8 115.447 33.8733 115.634 33.98C115.834 34.0733 116.047 34.1867 116.274 34.32C116.501 34.44 116.701 34.5467 116.874 34.64C117.061 34.7333 117.174 34.7933 117.214 34.82C117.881 35.1933 118.407 35.6533 118.794 36.2C119.181 36.7333 119.374 37.3933 119.374 38.18C119.374 38.94 119.194 39.6267 118.834 40.24C118.487 40.84 118.014 41.32 117.414 41.68C116.827 42.0267 116.174 42.2 115.454 42.2ZM120.865 42C120.798 42 120.765 41.9667 120.765 41.9L120.785 28.16C120.785 28.1067 120.812 28.08 120.865 28.08H123.105C123.158 28.08 123.185 28.1067 123.185 28.16L123.205 41.9C123.205 41.9667 123.178 42 123.125 42H120.865ZM126.964 42C126.911 42 126.884 41.9667 126.884 41.9V30.5H124.284C124.217 30.5 124.184 30.4667 124.184 30.4L124.204 28.16C124.204 28.1067 124.231 28.08 124.284 28.08H131.884C131.951 28.08 131.984 28.1067 131.984 28.16V30.4C131.984 30.4667 131.957 30.5 131.904 30.5H129.284L129.304 41.9C129.304 41.9667 129.277 42 129.224 42H126.964ZM133.052 42C132.999 42 132.972 41.9667 132.972 41.9L132.992 28.16C132.992 28.1067 133.019 28.08 133.072 28.08H139.492C139.545 28.08 139.572 28.1133 139.572 28.18V30.42C139.572 30.4733 139.545 30.5 139.492 30.5H135.392V33.62H139.492C139.545 33.62 139.572 33.6467 139.572 33.7L139.592 35.96C139.592 36.0133 139.565 36.04 139.512 36.04H135.392V39.54H139.512C139.565 39.54 139.592 39.5733 139.592 39.64V41.92C139.592 41.9733 139.565 42 139.512 42H133.052ZM144.653 42.2C143.933 42.2 143.273 42.02 142.673 41.66C142.086 41.2867 141.613 40.8 141.253 40.2C140.906 39.5867 140.733 38.9133 140.733 38.18V37.26C140.733 37.1933 140.766 37.16 140.833 37.16H143.073C143.126 37.16 143.153 37.1933 143.153 37.26V38.18C143.153 38.62 143.3 39 143.593 39.32C143.886 39.6267 144.24 39.78 144.653 39.78C145.066 39.78 145.42 39.62 145.713 39.3C146.006 38.98 146.153 38.6067 146.153 38.18C146.153 37.6867 145.833 37.26 145.193 36.9C144.98 36.78 144.646 36.5933 144.193 36.34C143.74 36.0867 143.313 35.8467 142.913 35.62C142.18 35.1933 141.633 34.66 141.273 34.02C140.926 33.3667 140.753 32.6333 140.753 31.82C140.753 31.0733 140.933 30.4067 141.293 29.82C141.653 29.22 142.126 28.7467 142.713 28.4C143.313 28.0533 143.96 27.88 144.653 27.88C145.36 27.88 146.006 28.06 146.593 28.42C147.193 28.7667 147.666 29.24 148.013 29.84C148.373 30.4267 148.553 31.0867 148.553 31.82V33.46C148.553 33.5133 148.526 33.54 148.473 33.54H146.233C146.18 33.54 146.153 33.5133 146.153 33.46L146.133 31.82C146.133 31.3533 145.986 30.9733 145.693 30.68C145.4 30.3867 145.053 30.24 144.653 30.24C144.24 30.24 143.886 30.4 143.593 30.72C143.3 31.0267 143.153 31.3933 143.153 31.82C143.153 32.26 143.246 32.6267 143.433 32.92C143.62 33.2133 143.96 33.4933 144.453 33.76C144.52 33.8 144.646 33.8733 144.833 33.98C145.033 34.0733 145.246 34.1867 145.473 34.32C145.7 34.44 145.9 34.5467 146.073 34.64C146.26 34.7333 146.373 34.7933 146.413 34.82C147.08 35.1933 147.606 35.6533 147.993 36.2C148.38 36.7333 148.573 37.3933 148.573 38.18C148.573 38.94 148.393 39.6267 148.033 40.24C147.686 40.84 147.213 41.32 146.613 41.68C146.026 42.0267 145.373 42.2 144.653 42.2Z" fill="#0037A6"/>
<defs>
<clipPath id="clip0_17_2">
<rect width="73" height="52" fill="white"/>
</clipPath>
</defs>
</svg>
