<svg width="136" height="52" viewBox="0 0 136 52" fill="none" xmlns="http://www.w3.org/2000/svg">
<g clip-path="url(#clip0_17_2)">
<path d="M71 24H64V14C64 11.8182 62.1573 10 60 10H45C42.8293 10 41 11.8182 41 14V24H31V4.05387C31 1.81818 29.2377 0 27 0H17.915C15.6907 0 14 1.81818 14 4.05387V24H2C0.807452 24 0 24.7946 0 25.9933C0 27.1919 0.807452 28 2 28H14V48C14 50.2357 15.7757 52 18 52H27C29.2377 52 31 50.1818 31 47.9461V28H41V38C41 40.1684 42.8293 42 45 42H60C62.1573 42 64 40.1684 64 38V28H71C72.1926 28 73 27.1919 73 25.9933C73 24.7946 72.1926 24 71 24ZM44 16C44 14.3704 44.3787 13 46 13H51C51.737 13 52 13.7593 52 14.5C52 15.2407 51.737 16 51 16H47C47 15.8653 47 16.404 47 16V21C47 21.7407 46.237 22 45.5 22C44.763 22 44 21.7407 44 21V16ZM17 6.20875C17 4.56566 17.3787 3 19 3H22C22.7504 3 23 3.75926 23 4.5C23 5.24074 22.7504 6 22 6H20C19.8526 6 20 5.85185 20 6V11C20 11.7407 19.237 12 18.5 12C17.763 12 17 11.7407 17 11V6.20875Z" fill="#0045D0"/>
</g>
<path d="M78.9 22C78.8333 22 78.8 21.9667 78.8 21.9L78.82 8.16C78.82 8.10667 78.8467 8.08 78.9 8.08H81.14C81.1933 8.08 81.22 8.10667 81.22 8.16L81.24 21.9C81.24 21.9667 81.2133 22 81.16 22H78.9ZM83.0792 22C83.0259 22 82.9992 21.9667 82.9992 21.9L83.0392 8.16C83.0392 8.10667 83.0659 8.08 83.1192 8.08H85.5592C85.6126 8.08 85.6592 8.10667 85.6992 8.16L87.5192 10.8L89.3392 8.16C89.3792 8.10667 89.4259 8.08 89.4792 8.08H91.9392C91.9926 8.08 92.0192 8.10667 92.0192 8.16L92.0592 21.9C92.0592 21.9667 92.0326 22 91.9792 22H89.7192C89.6659 22 89.6392 21.9667 89.6392 21.9L89.6192 11.7L87.5192 14.74L85.4392 11.7L85.4192 21.9C85.4192 21.9667 85.3926 22 85.3392 22H83.0792ZM93.8414 22C93.7747 22 93.7414 21.9667 93.7414 21.9L93.7814 8.16C93.7814 8.10667 93.8081 8.08 93.8614 8.08H97.7014C98.9281 8.08 99.8947 8.45333 100.601 9.2C101.321 9.94667 101.681 10.96 101.681 12.24C101.681 13.1867 101.495 14.0067 101.121 14.7C100.748 15.3933 100.261 15.9267 99.6614 16.3C99.0614 16.6733 98.4081 16.86 97.7014 16.86H96.1814V21.9C96.1814 21.9667 96.1481 22 96.0814 22H93.8414ZM96.1814 14.44H97.7014C98.1281 14.44 98.4947 14.24 98.8014 13.84C99.1214 13.4267 99.2814 12.8933 99.2814 12.24C99.2814 11.72 99.1414 11.2933 98.8614 10.96C98.5814 10.6267 98.1947 10.46 97.7014 10.46L96.1814 10.48V14.44ZM101.362 21.9L103.842 8.16C103.856 8.10667 103.889 8.08 103.942 8.08H106.842C106.896 8.08 106.929 8.10667 106.942 8.16L109.322 21.9C109.336 21.9667 109.309 22 109.242 22H107.022C106.969 22 106.936 21.9667 106.922 21.9L106.702 20.44H103.982L103.762 21.9C103.749 21.9667 103.716 22 103.662 22H101.442C101.389 22 101.362 21.9667 101.362 21.9ZM104.382 18.3H106.302L105.482 12.68L105.362 11.94L105.282 12.68L104.382 18.3ZM113.828 22.2C113.094 22.2 112.428 22.02 111.828 21.66C111.241 21.2867 110.774 20.7933 110.428 20.18C110.081 19.5667 109.908 18.88 109.908 18.12L109.928 11.88C109.928 11.1467 110.094 10.48 110.428 9.88C110.774 9.26667 111.241 8.78 111.828 8.42C112.428 8.04667 113.094 7.86 113.828 7.86C114.561 7.86 115.221 8.04 115.808 8.4C116.394 8.76 116.861 9.24667 117.208 9.86C117.554 10.46 117.728 11.1333 117.728 11.88V12.8C117.728 12.8533 117.701 12.88 117.648 12.88H115.408C115.354 12.88 115.328 12.8533 115.328 12.8V11.88C115.328 11.44 115.181 11.06 114.888 10.74C114.608 10.42 114.254 10.26 113.828 10.26C113.348 10.26 112.981 10.4267 112.728 10.76C112.474 11.08 112.348 11.4533 112.348 11.88V18.12C112.348 18.6133 112.488 19.0133 112.768 19.32C113.061 19.6267 113.414 19.78 113.828 19.78C114.254 19.78 114.608 19.6133 114.888 19.28C115.181 18.9333 115.328 18.5467 115.328 18.12V17.2C115.328 17.1467 115.354 17.12 115.408 17.12H117.668C117.721 17.12 117.748 17.1467 117.748 17.2V18.12C117.748 18.88 117.568 19.5667 117.208 20.18C116.861 20.7933 116.394 21.2867 115.808 21.66C115.221 22.02 114.561 22.2 113.828 22.2ZM120.956 22C120.903 22 120.876 21.9667 120.876 21.9V10.5H118.276C118.21 10.5 118.176 10.4667 118.176 10.4L118.196 8.16C118.196 8.10667 118.223 8.08 118.276 8.08H125.876C125.943 8.08 125.976 8.10667 125.976 8.16V10.4C125.976 10.4667 125.95 10.5 125.896 10.5H123.276L123.296 21.9C123.296 21.9667 123.27 22 123.216 22H120.956ZM130.469 22.2C129.749 22.2 129.089 22.02 128.489 21.66C127.902 21.2867 127.429 20.8 127.069 20.2C126.709 19.5867 126.529 18.9133 126.529 18.18L126.549 11.84C126.549 11.1067 126.722 10.44 127.069 9.84C127.429 9.24 127.909 8.76 128.509 8.4C129.109 8.04 129.762 7.86 130.469 7.86C131.189 7.86 131.842 8.04 132.429 8.4C133.015 8.76 133.482 9.24 133.829 9.84C134.189 10.44 134.369 11.1067 134.369 11.84L134.389 18.18C134.389 18.9133 134.209 19.5867 133.849 20.2C133.502 20.8 133.029 21.2867 132.429 21.66C131.842 22.02 131.189 22.2 130.469 22.2ZM130.469 19.78C130.869 19.78 131.215 19.62 131.509 19.3C131.815 18.9667 131.969 18.5933 131.969 18.18L131.949 11.84C131.949 11.4 131.809 11.0267 131.529 10.72C131.249 10.4133 130.895 10.26 130.469 10.26C130.055 10.26 129.702 10.4133 129.409 10.72C129.115 11.0133 128.969 11.3867 128.969 11.84V18.18C128.969 18.62 129.115 19 129.409 19.32C129.702 19.6267 130.055 19.78 130.469 19.78Z" fill="#0045D0"/>
<path d="M93.64 41C93.5867 41 93.5533 40.9667 93.54 40.9L91.18 27.16C91.1667 27.1067 91.1867 27.08 91.24 27.08H93.48C93.5333 27.08 93.5667 27.1067 93.58 27.16L94.86 36.2L96.18 27.16C96.1933 27.1067 96.2333 27.08 96.3 27.08H98.1C98.1533 27.08 98.1867 27.1067 98.2 27.16L99.5 36.2L100.8 27.16C100.813 27.1067 100.847 27.08 100.9 27.08H103.12C103.187 27.08 103.213 27.1067 103.2 27.16L100.82 40.9C100.807 40.9267 100.787 40.9533 100.76 40.98C100.733 40.9933 100.72 41 100.72 41H98.3C98.26 41 98.2267 40.9667 98.2 40.9L97.18 33.72L96.16 40.9C96.1467 40.9667 96.1133 41 96.06 41H93.64ZM104.458 41C104.405 41 104.378 40.9667 104.378 40.9L104.398 27.16C104.398 27.1067 104.425 27.08 104.478 27.08H110.898C110.951 27.08 110.978 27.1133 110.978 27.18V29.42C110.978 29.4733 110.951 29.5 110.898 29.5H106.798V32.62H110.898C110.951 32.62 110.978 32.6467 110.978 32.7L110.998 34.96C110.998 35.0133 110.971 35.04 110.918 35.04H106.798V38.54H110.918C110.971 38.54 110.998 38.5733 110.998 38.64V40.92C110.998 40.9733 110.971 41 110.918 41H104.458ZM112.857 41C112.803 41 112.777 40.9667 112.777 40.9L112.817 27.16C112.817 27.1067 112.843 27.08 112.897 27.08H116.737C117.497 27.08 118.177 27.2667 118.777 27.64C119.377 28 119.85 28.48 120.197 29.08C120.543 29.68 120.717 30.3333 120.717 31.04C120.717 31.6133 120.583 32.1467 120.317 32.64C120.063 33.1333 119.757 33.5333 119.397 33.84C119.783 34.2267 120.083 34.6733 120.297 35.18C120.51 35.6867 120.617 36.22 120.617 36.78C120.617 37.5533 120.43 38.26 120.057 38.9C119.683 39.54 119.177 40.0533 118.537 40.44C117.91 40.8133 117.21 41 116.437 41H112.857ZM115.217 32.6H116.737C117.203 32.6 117.577 32.44 117.857 32.12C118.15 31.7867 118.297 31.4267 118.297 31.04C118.297 30.6133 118.143 30.2467 117.837 29.94C117.53 29.62 117.163 29.46 116.737 29.46H115.217V32.6ZM115.197 38.56H116.437C116.917 38.56 117.33 38.3867 117.677 38.04C118.023 37.68 118.197 37.26 118.197 36.78C118.197 36.3 118.023 35.8867 117.677 35.54C117.33 35.1933 116.917 35.02 116.437 35.02H115.217L115.197 38.56Z" fill="#0037A6"/>
<defs>
<clipPath id="clip0_17_2">
<rect width="73" height="52" fill="white"/>
</clipPath>
</defs>
</svg>
