<svg width="47" height="65" viewBox="0 0 47 65" fill="none" xmlns="http://www.w3.org/2000/svg">
<path d="M3.88239 64.1667C2.81473 64.1667 1.90075 63.7383 1.14045 62.8815C0.380151 62.0247 0 60.9948 0 59.7917V4.375C0 3.17187 0.380151 2.14193 1.14045 1.28516C1.90075 0.428385 2.81473 0 3.88239 0H32.3532C33.4209 0 34.3349 0.428385 35.0952 1.28516C35.8555 2.14193 36.2356 3.17187 36.2356 4.375V15.0208H32.3532V10.9375H3.88239V53.2292H32.3532V49.1458H36.2356V59.7917C36.2356 60.9948 35.8555 62.0247 35.0952 62.8815C34.3349 63.7383 33.4209 64.1667 32.3532 64.1667H3.88239ZM3.88239 57.6042V59.7917H32.3532V57.6042H3.88239ZM28.3414 43.75L17.3413 31.3542L20.1237 28.2917L28.3414 37.5521L43.8063 20.125L46.5887 23.1875L28.3414 43.75ZM3.88239 6.5625H32.3532V4.375H3.88239V6.5625Z" fill="white"/>
</svg>
